G75*
%MOIN*%
%OFA0B0*%
%FSLAX25Y25*%
%IPPOS*%
%LPD*%
%AMOC8*
5,1,8,0,0,1.08239X$1,22.5*
%
%ADD10R,0.05931X0.05537*%
%ADD11R,0.09277X0.07506*%
%ADD12R,0.05537X0.05931*%
%ADD13R,0.04750X0.04356*%
%ADD14R,0.07112X0.05537*%
%ADD15R,0.06324X0.07899*%
%ADD16R,0.04356X0.04750*%
%ADD17OC8,0.07600*%
%ADD18R,0.11443X0.11443*%
%ADD19C,0.02978*%
%ADD20C,0.01489*%
%ADD21R,0.07506X0.08490*%
%ADD22R,0.01496X0.03228*%
%ADD23R,0.01654X0.03150*%
%ADD24R,0.01732X0.03228*%
%ADD25R,0.03765X0.06324*%
%ADD26R,0.07506X0.09277*%
%ADD27R,0.02584X0.07309*%
%ADD28R,0.07309X0.02584*%
%ADD29R,0.03569X0.04356*%
%ADD30R,0.05734X0.05852*%
%ADD31R,0.04356X0.03569*%
%ADD32R,0.05900X0.07100*%
%ADD33R,0.08687X0.05931*%
%ADD34R,0.08200X0.02700*%
%ADD35R,0.02700X0.08200*%
%ADD36R,0.07100X0.05900*%
%ADD37R,0.04750X0.04750*%
%ADD38R,0.07112X0.06324*%
%ADD39R,0.06200X0.03000*%
%ADD40R,0.07000X0.07000*%
%ADD41OC8,0.07000*%
%ADD42R,0.02800X0.03800*%
%ADD43R,0.02800X0.03600*%
%ADD44C,0.00600*%
%ADD45C,0.14100*%
%ADD46R,0.03765X0.03175*%
%ADD47C,0.05143*%
%ADD48R,0.03372X0.07112*%
%ADD49R,0.06324X0.09080*%
%ADD50R,0.07309X0.09868*%
%ADD51R,0.09000X0.09000*%
%ADD52C,0.09000*%
%ADD53R,0.07100X0.07100*%
%ADD54R,0.05600X0.07600*%
%ADD55C,0.05340*%
%ADD56R,0.07600X0.05600*%
%ADD57R,0.05734X0.05734*%
%ADD58C,0.05734*%
%ADD59C,0.05200*%
D10*
X0024554Y0287100D03*
X0031246Y0287100D03*
X0105165Y0340643D03*
X0111858Y0340643D03*
X0210716Y0339525D03*
X0217409Y0339525D03*
X0218158Y0309450D03*
X0211465Y0309450D03*
D11*
X0170914Y0350875D03*
X0160087Y0350875D03*
X0077163Y0117250D03*
X0066337Y0117250D03*
D12*
X0054400Y0252954D03*
X0054400Y0259646D03*
X0088612Y0348297D03*
X0088612Y0354990D03*
X0116250Y0300596D03*
X0116250Y0293904D03*
D13*
X0145638Y0311500D03*
X0145638Y0315500D03*
X0146138Y0320000D03*
X0150862Y0320000D03*
X0150362Y0315500D03*
X0150362Y0311500D03*
X0160638Y0345500D03*
X0165363Y0345500D03*
X0185213Y0347250D03*
X0189937Y0347250D03*
X0189937Y0332351D03*
X0189862Y0327500D03*
X0190362Y0322799D03*
X0185637Y0322799D03*
X0185137Y0327500D03*
X0185213Y0332351D03*
X0185137Y0315300D03*
X0189862Y0315300D03*
X0186862Y0297000D03*
X0186862Y0293000D03*
X0182138Y0293000D03*
X0182138Y0297000D03*
X0212413Y0344650D03*
X0212389Y0348850D03*
X0217113Y0348850D03*
X0217137Y0344650D03*
X0088362Y0180500D03*
X0083638Y0180500D03*
X0074612Y0122750D03*
X0069888Y0122750D03*
X0095388Y0044000D03*
X0100112Y0044000D03*
X0116638Y0044000D03*
X0121362Y0044000D03*
X0126638Y0044000D03*
X0131362Y0044000D03*
X0136638Y0044000D03*
X0141362Y0044000D03*
X0167138Y0128000D03*
X0171862Y0128000D03*
X0016441Y0257366D03*
X0016441Y0261654D03*
X0011717Y0261654D03*
X0011717Y0257366D03*
D14*
X0196144Y0314885D03*
X0196144Y0322366D03*
X0196769Y0330560D03*
X0196769Y0338041D03*
X0196820Y0346185D03*
X0196820Y0353666D03*
X0205481Y0349926D03*
X0205430Y0334300D03*
X0213943Y0333715D03*
X0213943Y0326235D03*
X0222605Y0329975D03*
X0204806Y0318626D03*
D15*
X0211669Y0316975D03*
X0223480Y0316975D03*
D16*
X0219500Y0285862D03*
X0219500Y0281138D03*
X0198500Y0292138D03*
X0198500Y0296862D03*
X0197000Y0303138D03*
X0197000Y0307862D03*
X0192124Y0307737D03*
X0192124Y0303013D03*
X0187574Y0302950D03*
X0187574Y0307674D03*
X0178126Y0308637D03*
X0178126Y0313362D03*
X0178012Y0320537D03*
X0178012Y0325262D03*
X0178000Y0333137D03*
X0178000Y0337861D03*
X0162062Y0317800D03*
X0162062Y0313075D03*
X0158137Y0315600D03*
X0158137Y0320324D03*
X0201500Y0225362D03*
X0201500Y0220638D03*
X0206500Y0220638D03*
X0206500Y0225362D03*
X0175000Y0138862D03*
X0175000Y0134138D03*
X0131100Y0097462D03*
X0131100Y0092738D03*
X0126000Y0093138D03*
X0126000Y0097862D03*
X0106000Y0094862D03*
X0106000Y0090138D03*
X0094500Y0180538D03*
X0094500Y0185262D03*
X0109200Y0188638D03*
X0109200Y0193362D03*
X0116600Y0193262D03*
X0116600Y0188538D03*
X0039100Y0248338D03*
X0034600Y0248338D03*
X0034600Y0253062D03*
X0039100Y0253062D03*
X0033400Y0260688D03*
X0028900Y0260688D03*
X0028900Y0265412D03*
X0033400Y0265412D03*
X0019200Y0323838D03*
X0019200Y0328562D03*
X0019300Y0335338D03*
X0019300Y0340062D03*
X0070191Y0363103D03*
X0070191Y0367827D03*
D17*
X0010000Y0354999D03*
X0010000Y0345000D03*
X0010000Y0335000D03*
X0010000Y0325000D03*
X0010000Y0315000D03*
X0010000Y0305000D03*
X0010000Y0295000D03*
X0050000Y0235000D03*
X0050000Y0225000D03*
X0060000Y0225000D03*
X0060000Y0235000D03*
X0070000Y0235000D03*
X0070000Y0225000D03*
X0080000Y0225000D03*
X0080000Y0235000D03*
X0090000Y0235000D03*
X0090000Y0225000D03*
X0100000Y0225000D03*
X0100000Y0235000D03*
X0110000Y0235000D03*
X0110000Y0225000D03*
X0120000Y0225000D03*
X0120000Y0235000D03*
X0130000Y0235000D03*
X0130000Y0225000D03*
X0140000Y0225000D03*
X0140000Y0235000D03*
X0171000Y0299500D03*
X0171000Y0309500D03*
X0171000Y0319500D03*
X0205000Y0245000D03*
X0205000Y0235000D03*
X0140000Y0065000D03*
X0140000Y0055000D03*
X0130000Y0055000D03*
X0130000Y0065000D03*
X0120000Y0065000D03*
X0120000Y0055000D03*
X0100000Y0055000D03*
X0100000Y0065000D03*
D18*
X0161500Y0334000D03*
D19*
X0160220Y0340594D02*
X0160220Y0341972D01*
X0157661Y0341972D02*
X0157661Y0340594D01*
X0154906Y0337839D02*
X0153528Y0337839D01*
X0153528Y0335280D02*
X0154906Y0335280D01*
X0154906Y0332720D02*
X0153528Y0332720D01*
X0153528Y0330161D02*
X0154906Y0330161D01*
X0157661Y0327406D02*
X0157661Y0326028D01*
X0160220Y0326028D02*
X0160220Y0327406D01*
X0162780Y0327406D02*
X0162780Y0326028D01*
X0165339Y0326028D02*
X0165339Y0327406D01*
X0168094Y0330161D02*
X0169472Y0330161D01*
X0169472Y0332720D02*
X0168094Y0332720D01*
X0168094Y0335280D02*
X0169472Y0335280D01*
X0169472Y0337839D02*
X0168094Y0337839D01*
X0165339Y0340594D02*
X0165339Y0341972D01*
X0162780Y0341972D02*
X0162780Y0340594D01*
D20*
X0105790Y0346360D02*
X0105790Y0347850D01*
X0109248Y0347850D01*
X0109248Y0346360D01*
X0105790Y0346360D01*
X0105790Y0347848D02*
X0109248Y0347848D01*
X0105790Y0348919D02*
X0105790Y0350409D01*
X0109248Y0350409D01*
X0109248Y0348919D01*
X0105790Y0348919D01*
X0105790Y0350407D02*
X0109248Y0350407D01*
X0105790Y0351478D02*
X0105790Y0352968D01*
X0109248Y0352968D01*
X0109248Y0351478D01*
X0105790Y0351478D01*
X0105790Y0352966D02*
X0109248Y0352966D01*
X0105790Y0354037D02*
X0105790Y0355527D01*
X0109248Y0355527D01*
X0109248Y0354037D01*
X0105790Y0354037D01*
X0105790Y0355525D02*
X0109248Y0355525D01*
X0094176Y0355527D02*
X0094176Y0354037D01*
X0094176Y0355527D02*
X0097634Y0355527D01*
X0097634Y0354037D01*
X0094176Y0354037D01*
X0094176Y0355525D02*
X0097634Y0355525D01*
X0094176Y0352968D02*
X0094176Y0351478D01*
X0094176Y0352968D02*
X0097634Y0352968D01*
X0097634Y0351478D01*
X0094176Y0351478D01*
X0094176Y0352966D02*
X0097634Y0352966D01*
X0094176Y0350409D02*
X0094176Y0348919D01*
X0094176Y0350409D02*
X0097634Y0350409D01*
X0097634Y0348919D01*
X0094176Y0348919D01*
X0094176Y0350407D02*
X0097634Y0350407D01*
X0094176Y0347850D02*
X0094176Y0346360D01*
X0094176Y0347850D02*
X0097634Y0347850D01*
X0097634Y0346360D01*
X0094176Y0346360D01*
X0094176Y0347848D02*
X0097634Y0347848D01*
D21*
X0101712Y0350943D03*
X0109063Y0181000D03*
X0116937Y0181000D03*
D22*
X0103011Y0345865D03*
X0100413Y0345865D03*
D23*
X0103011Y0356140D03*
D24*
X0100452Y0356101D03*
D25*
X0211960Y0302618D03*
X0215700Y0302618D03*
X0219440Y0302618D03*
X0219440Y0292382D03*
X0211960Y0292382D03*
D26*
X0204500Y0292087D03*
X0204500Y0302913D03*
X0023900Y0348387D03*
X0023900Y0359213D03*
D27*
X0045200Y0329827D03*
X0046775Y0329827D03*
X0048350Y0329827D03*
X0049924Y0329827D03*
X0051499Y0329827D03*
X0053074Y0329827D03*
X0054649Y0329827D03*
X0056224Y0329827D03*
X0057798Y0329827D03*
X0059373Y0329827D03*
X0060948Y0329827D03*
X0062523Y0329827D03*
X0064098Y0329827D03*
X0065672Y0329827D03*
X0067247Y0329827D03*
X0068822Y0329827D03*
X0070397Y0329827D03*
X0071972Y0329827D03*
X0073546Y0329827D03*
X0075121Y0329827D03*
X0076696Y0329827D03*
X0078271Y0329827D03*
X0079846Y0329827D03*
X0081420Y0329827D03*
X0082995Y0329827D03*
X0084570Y0329827D03*
X0086145Y0329827D03*
X0087720Y0329827D03*
X0089294Y0329827D03*
X0090869Y0329827D03*
X0092444Y0329827D03*
X0094019Y0329827D03*
X0094019Y0269000D03*
X0092444Y0269000D03*
X0090869Y0269000D03*
X0089294Y0269000D03*
X0087720Y0269000D03*
X0086145Y0269000D03*
X0084570Y0269000D03*
X0082995Y0269000D03*
X0081420Y0269000D03*
X0079846Y0269000D03*
X0078271Y0269000D03*
X0076696Y0269000D03*
X0075121Y0269000D03*
X0073546Y0269000D03*
X0071972Y0269000D03*
X0070397Y0269000D03*
X0068822Y0269000D03*
X0067247Y0269000D03*
X0065672Y0269000D03*
X0064098Y0269000D03*
X0062523Y0269000D03*
X0060948Y0269000D03*
X0059373Y0269000D03*
X0057798Y0269000D03*
X0056224Y0269000D03*
X0054649Y0269000D03*
X0053074Y0269000D03*
X0051499Y0269000D03*
X0049924Y0269000D03*
X0048350Y0269000D03*
X0046775Y0269000D03*
X0045200Y0269000D03*
D28*
X0039196Y0275004D03*
X0039196Y0276579D03*
X0039196Y0278154D03*
X0039196Y0279728D03*
X0039196Y0281303D03*
X0039196Y0282878D03*
X0039196Y0284453D03*
X0039196Y0286028D03*
X0039196Y0287602D03*
X0039196Y0289177D03*
X0039196Y0290752D03*
X0039196Y0292327D03*
X0039196Y0293902D03*
X0039196Y0295476D03*
X0039196Y0297051D03*
X0039196Y0298626D03*
X0039196Y0300201D03*
X0039196Y0301776D03*
X0039196Y0303350D03*
X0039196Y0304925D03*
X0039196Y0306500D03*
X0039196Y0308075D03*
X0039196Y0309650D03*
X0039196Y0311224D03*
X0039196Y0312799D03*
X0039196Y0314374D03*
X0039196Y0315949D03*
X0039196Y0317524D03*
X0039196Y0319098D03*
X0039196Y0320673D03*
X0039196Y0322248D03*
X0039196Y0323823D03*
X0100023Y0323823D03*
X0100023Y0322248D03*
X0100023Y0320673D03*
X0100023Y0319098D03*
X0100023Y0317524D03*
X0100023Y0315949D03*
X0100023Y0314374D03*
X0100023Y0312799D03*
X0100023Y0311224D03*
X0100023Y0309650D03*
X0100023Y0308075D03*
X0100023Y0306500D03*
X0100023Y0304925D03*
X0100023Y0303350D03*
X0100023Y0301776D03*
X0100023Y0300201D03*
X0100023Y0298626D03*
X0100023Y0297051D03*
X0100023Y0295476D03*
X0100023Y0293902D03*
X0100023Y0292327D03*
X0100023Y0290752D03*
X0100023Y0289177D03*
X0100023Y0287602D03*
X0100023Y0286028D03*
X0100023Y0284453D03*
X0100023Y0282878D03*
X0100023Y0281303D03*
X0100023Y0279728D03*
X0100023Y0278154D03*
X0100023Y0276579D03*
X0100023Y0275004D03*
D29*
X0087380Y0335134D03*
X0083837Y0335134D03*
X0057072Y0336300D03*
X0053528Y0336300D03*
X0031772Y0336000D03*
X0028228Y0336000D03*
X0026978Y0316000D03*
X0030522Y0316000D03*
X0029278Y0301600D03*
X0032822Y0301600D03*
X0030272Y0292300D03*
X0026728Y0292300D03*
D30*
X0024555Y0281300D03*
X0031445Y0281300D03*
D31*
X0059100Y0259972D03*
X0059100Y0256428D03*
X0065200Y0256628D03*
X0065200Y0260172D03*
X0069200Y0260172D03*
X0069200Y0256628D03*
X0073200Y0256628D03*
X0073200Y0260172D03*
X0092000Y0260272D03*
X0092000Y0256728D03*
X0111500Y0294478D03*
X0111500Y0298022D03*
X0111000Y0305728D03*
X0107500Y0305728D03*
X0107500Y0309272D03*
X0111000Y0309272D03*
X0114500Y0309272D03*
X0118000Y0309272D03*
X0118000Y0305728D03*
X0114500Y0305728D03*
X0121500Y0305728D03*
X0125000Y0305728D03*
X0128500Y0305728D03*
X0132000Y0305728D03*
X0135500Y0305728D03*
X0135500Y0309272D03*
X0132000Y0309272D03*
X0128500Y0309272D03*
X0125000Y0309272D03*
X0121500Y0309272D03*
X0071700Y0342028D03*
X0071700Y0345572D03*
X0053300Y0345472D03*
X0053300Y0341928D03*
X0044000Y0342228D03*
X0040500Y0342228D03*
X0037000Y0342228D03*
X0037000Y0345772D03*
X0040500Y0345772D03*
X0044000Y0345772D03*
X0035000Y0335772D03*
X0035000Y0332228D03*
X0149047Y0045500D03*
X0154953Y0045500D03*
D32*
X0167800Y0122750D03*
X0175200Y0122750D03*
D33*
X0167500Y0133800D03*
X0167500Y0141200D03*
D34*
X0150000Y0141400D03*
X0150000Y0139500D03*
X0150000Y0137500D03*
X0150000Y0135500D03*
X0150000Y0133600D03*
X0150000Y0131600D03*
X0150000Y0129600D03*
X0150000Y0127700D03*
X0150000Y0125700D03*
X0150000Y0123700D03*
X0150000Y0121800D03*
X0150000Y0119800D03*
X0150000Y0117800D03*
X0150000Y0115800D03*
X0150000Y0113900D03*
X0150000Y0143400D03*
X0150000Y0145400D03*
X0150000Y0147300D03*
X0150000Y0149300D03*
X0150000Y0151300D03*
X0150000Y0153200D03*
X0150000Y0155200D03*
X0150000Y0157200D03*
X0150000Y0159200D03*
X0150000Y0161100D03*
X0090000Y0161100D03*
X0090000Y0159200D03*
X0090000Y0157200D03*
X0090000Y0155200D03*
X0090000Y0153200D03*
X0090000Y0151300D03*
X0090000Y0149300D03*
X0090000Y0147300D03*
X0090000Y0145400D03*
X0090000Y0143400D03*
X0090000Y0141400D03*
X0090000Y0139500D03*
X0090000Y0137500D03*
X0090000Y0135500D03*
X0090000Y0133600D03*
X0090000Y0131600D03*
X0090000Y0129600D03*
X0090000Y0127700D03*
X0090000Y0125700D03*
X0090000Y0123700D03*
X0090000Y0121800D03*
X0090000Y0119800D03*
X0090000Y0117800D03*
X0090000Y0115800D03*
X0090000Y0113900D03*
D35*
X0096400Y0107500D03*
X0098300Y0107500D03*
X0100300Y0107500D03*
X0102300Y0107500D03*
X0104300Y0107500D03*
X0106200Y0107500D03*
X0108200Y0107500D03*
X0110200Y0107500D03*
X0112100Y0107500D03*
X0114100Y0107500D03*
X0116100Y0107500D03*
X0118000Y0107500D03*
X0120000Y0107500D03*
X0122000Y0107500D03*
X0123900Y0107500D03*
X0125900Y0107500D03*
X0127900Y0107500D03*
X0129800Y0107500D03*
X0131800Y0107500D03*
X0133800Y0107500D03*
X0135700Y0107500D03*
X0137700Y0107500D03*
X0139700Y0107500D03*
X0141700Y0107500D03*
X0143600Y0107500D03*
X0143600Y0167500D03*
X0141700Y0167500D03*
X0139700Y0167500D03*
X0137700Y0167500D03*
X0135700Y0167500D03*
X0133800Y0167500D03*
X0131800Y0167500D03*
X0129800Y0167500D03*
X0127900Y0167500D03*
X0125900Y0167500D03*
X0123900Y0167500D03*
X0122000Y0167500D03*
X0120000Y0167500D03*
X0118000Y0167500D03*
X0116100Y0167500D03*
X0114100Y0167500D03*
X0112100Y0167500D03*
X0110200Y0167500D03*
X0108200Y0167500D03*
X0106200Y0167500D03*
X0104300Y0167500D03*
X0102300Y0167500D03*
X0100300Y0167500D03*
X0098300Y0167500D03*
X0096400Y0167500D03*
D36*
X0100000Y0180300D03*
X0100000Y0187700D03*
D37*
X0015693Y0238469D03*
X0009787Y0238469D03*
X0009787Y0245969D03*
X0015693Y0245969D03*
X0084547Y0044000D03*
X0090453Y0044000D03*
D38*
X0111669Y0090850D03*
X0111669Y0097150D03*
X0120331Y0097150D03*
X0120331Y0090850D03*
X0066861Y0340700D03*
X0066861Y0346999D03*
X0058200Y0346999D03*
X0058200Y0340700D03*
D39*
X0078400Y0255600D03*
X0078400Y0250400D03*
X0086600Y0250400D03*
X0086600Y0253000D03*
X0086600Y0255600D03*
D40*
X0080000Y0025000D03*
X0080000Y0015000D03*
X0030000Y0015000D03*
X0030000Y0025000D03*
X0130000Y0025000D03*
X0130000Y0015000D03*
X0180000Y0015000D03*
X0180000Y0025000D03*
D41*
X0170000Y0025000D03*
X0170000Y0015000D03*
X0160000Y0015000D03*
X0160000Y0025000D03*
X0150000Y0025000D03*
X0150000Y0015000D03*
X0140000Y0015000D03*
X0140000Y0025000D03*
X0120000Y0025000D03*
X0120000Y0015000D03*
X0110000Y0015000D03*
X0110000Y0025000D03*
X0100000Y0025000D03*
X0100000Y0015000D03*
X0090000Y0015000D03*
X0090000Y0025000D03*
X0070000Y0025000D03*
X0070000Y0015000D03*
X0060000Y0015000D03*
X0060000Y0025000D03*
X0050000Y0025000D03*
X0050000Y0015000D03*
X0040000Y0015000D03*
X0040000Y0025000D03*
X0190000Y0025000D03*
X0190000Y0015000D03*
X0200000Y0015000D03*
X0200000Y0025000D03*
X0210000Y0025000D03*
X0210000Y0015000D03*
D42*
X0047547Y0351584D03*
D43*
X0049547Y0351484D03*
X0051547Y0351484D03*
X0051547Y0354484D03*
X0049547Y0354484D03*
X0047547Y0354484D03*
D44*
X0046747Y0355784D02*
X0046747Y0353184D01*
X0048447Y0353184D01*
X0048447Y0355784D01*
X0046747Y0355784D01*
X0048647Y0355784D02*
X0048647Y0353184D01*
X0050447Y0353184D01*
X0050447Y0355784D01*
X0048647Y0355784D01*
X0050647Y0355784D02*
X0050647Y0353184D01*
X0052347Y0353184D01*
X0052347Y0355784D01*
X0050647Y0355784D01*
X0050647Y0352784D02*
X0050647Y0350184D01*
X0052347Y0350184D01*
X0052347Y0352784D01*
X0050647Y0352784D01*
X0050447Y0352784D02*
X0048647Y0352784D01*
X0048647Y0350184D01*
X0050447Y0350184D01*
X0050447Y0352784D01*
X0048447Y0352784D02*
X0046747Y0352784D01*
X0046747Y0350184D01*
X0048447Y0350184D01*
X0048447Y0352784D01*
D45*
X0015000Y0020000D03*
X0225000Y0020000D03*
X0225000Y0375000D03*
X0015000Y0375000D03*
D46*
X0149343Y0048354D03*
X0149343Y0042646D03*
X0154657Y0042646D03*
X0154657Y0048354D03*
D47*
X0065551Y0373972D02*
X0065551Y0377516D01*
X0034449Y0377516D02*
X0034449Y0373972D01*
D48*
X0044882Y0364917D03*
X0047441Y0364917D03*
X0050000Y0364917D03*
X0052559Y0364917D03*
X0055118Y0364917D03*
D49*
X0053346Y0375350D03*
X0046654Y0375350D03*
D50*
X0040354Y0366295D03*
X0059646Y0366295D03*
D51*
X0030000Y0185000D03*
X0030000Y0055000D03*
X0210000Y0055000D03*
D52*
X0210000Y0065000D03*
X0210000Y0075000D03*
X0210000Y0095000D03*
X0210000Y0105000D03*
X0210000Y0115000D03*
X0210000Y0125000D03*
X0210000Y0135000D03*
X0210000Y0145000D03*
X0210000Y0155000D03*
X0210000Y0165000D03*
X0210000Y0175000D03*
X0210000Y0185000D03*
X0200000Y0185000D03*
X0200000Y0175000D03*
X0200000Y0165000D03*
X0200000Y0155000D03*
X0200000Y0145000D03*
X0200000Y0135000D03*
X0200000Y0125000D03*
X0200000Y0115000D03*
X0200000Y0105000D03*
X0200000Y0095000D03*
X0040000Y0095000D03*
X0040000Y0105000D03*
X0040000Y0115000D03*
X0040000Y0125000D03*
X0040000Y0135000D03*
X0040000Y0145000D03*
X0040000Y0155000D03*
X0040000Y0165000D03*
X0040000Y0175000D03*
X0040000Y0185000D03*
X0030000Y0175000D03*
X0030000Y0165000D03*
X0030000Y0155000D03*
X0030000Y0145000D03*
X0030000Y0135000D03*
X0030000Y0125000D03*
X0030000Y0115000D03*
X0030000Y0105000D03*
X0030000Y0095000D03*
X0030000Y0075000D03*
X0030000Y0065000D03*
D53*
X0019250Y0201000D03*
X0019250Y0218000D03*
X0180000Y0370750D03*
X0197000Y0370750D03*
X0220750Y0218000D03*
X0220750Y0201000D03*
D54*
X0228000Y0196000D03*
X0228000Y0223000D03*
X0012000Y0223000D03*
X0012000Y0196000D03*
D55*
X0014000Y0204972D03*
X0014000Y0214028D03*
X0183972Y0376000D03*
X0193028Y0376000D03*
X0226000Y0214028D03*
X0226000Y0204972D03*
D56*
X0202000Y0378000D03*
X0175000Y0378000D03*
D57*
X0185000Y0244500D03*
X0185000Y0220500D03*
D58*
X0185000Y0215500D03*
X0180000Y0215500D03*
X0180000Y0220500D03*
X0175000Y0220500D03*
X0175000Y0215500D03*
X0170000Y0215500D03*
X0170000Y0220500D03*
X0165000Y0220500D03*
X0165000Y0215500D03*
X0165000Y0239500D03*
X0165000Y0244500D03*
X0170000Y0244500D03*
X0170000Y0239500D03*
X0175000Y0239500D03*
X0175000Y0244500D03*
X0180000Y0244500D03*
X0180000Y0239500D03*
X0185000Y0239500D03*
D59*
X0167000Y0262000D03*
X0164000Y0259000D03*
X0214742Y0285466D03*
X0077000Y0359000D03*
X0063000Y0358500D03*
X0059000Y0358500D03*
X0043000Y0359000D03*
X0030000Y0331000D03*
M02*
