G75*
%MOIN*%
%OFA0B0*%
%FSLAX25Y25*%
%IPPOS*%
%LPD*%
%AMOC8*
5,1,8,0,0,1.08239X$1,22.5*
%
%ADD10OC8,0.06000*%
%ADD11R,0.05400X0.05400*%
%ADD12OC8,0.05400*%
%ADD13C,0.03543*%
%ADD14R,0.07400X0.07400*%
%ADD15C,0.07400*%
%ADD16R,0.04134X0.04134*%
%ADD17C,0.04134*%
%ADD18C,0.02800*%
%ADD19C,0.01600*%
%ADD20C,0.00800*%
%ADD21C,0.03600*%
%ADD22C,0.02500*%
%ADD23C,0.02000*%
%ADD24C,0.01200*%
D10*
X0100000Y0055000D03*
X0100000Y0065000D03*
X0120000Y0065000D03*
X0120000Y0055000D03*
X0130000Y0055000D03*
X0130000Y0065000D03*
X0140000Y0065000D03*
X0140000Y0055000D03*
X0140000Y0225000D03*
X0140000Y0235000D03*
X0130000Y0235000D03*
X0130000Y0225000D03*
X0120000Y0225000D03*
X0120000Y0235000D03*
X0110000Y0235000D03*
X0110000Y0225000D03*
X0100000Y0225000D03*
X0100000Y0235000D03*
X0090000Y0235000D03*
X0090000Y0225000D03*
X0080000Y0225000D03*
X0080000Y0235000D03*
X0070000Y0235000D03*
X0070000Y0225000D03*
X0060000Y0225000D03*
X0060000Y0235000D03*
X0050000Y0235000D03*
X0050000Y0225000D03*
X0010000Y0295000D03*
X0010000Y0305000D03*
X0010000Y0315000D03*
X0010000Y0325000D03*
X0010000Y0335000D03*
X0010000Y0345000D03*
X0010000Y0354999D03*
X0171000Y0319500D03*
X0171000Y0309500D03*
X0171000Y0299500D03*
X0205000Y0245000D03*
X0205000Y0235000D03*
D11*
X0030000Y0015000D03*
X0030000Y0025000D03*
X0080000Y0025000D03*
X0080000Y0015000D03*
X0130000Y0015000D03*
X0130000Y0025000D03*
X0180000Y0025000D03*
X0180000Y0015000D03*
D12*
X0170000Y0015000D03*
X0170000Y0025000D03*
X0160000Y0025000D03*
X0160000Y0015000D03*
X0150000Y0015000D03*
X0150000Y0025000D03*
X0140000Y0025000D03*
X0140000Y0015000D03*
X0120000Y0015000D03*
X0120000Y0025000D03*
X0110000Y0025000D03*
X0110000Y0015000D03*
X0100000Y0015000D03*
X0100000Y0025000D03*
X0090000Y0025000D03*
X0090000Y0015000D03*
X0070000Y0015000D03*
X0070000Y0025000D03*
X0060000Y0025000D03*
X0060000Y0015000D03*
X0050000Y0015000D03*
X0050000Y0025000D03*
X0040000Y0025000D03*
X0040000Y0015000D03*
X0190000Y0015000D03*
X0190000Y0025000D03*
X0200000Y0025000D03*
X0200000Y0015000D03*
X0210000Y0015000D03*
X0210000Y0025000D03*
D13*
X0065551Y0373972D02*
X0065551Y0377516D01*
X0034449Y0377516D02*
X0034449Y0373972D01*
D14*
X0030000Y0185000D03*
X0030000Y0055000D03*
X0210000Y0055000D03*
D15*
X0210000Y0065000D03*
X0210000Y0075000D03*
X0210000Y0095000D03*
X0210000Y0105000D03*
X0210000Y0115000D03*
X0210000Y0125000D03*
X0210000Y0135000D03*
X0210000Y0145000D03*
X0210000Y0155000D03*
X0210000Y0165000D03*
X0210000Y0175000D03*
X0210000Y0185000D03*
X0200000Y0185000D03*
X0200000Y0175000D03*
X0200000Y0165000D03*
X0200000Y0155000D03*
X0200000Y0145000D03*
X0200000Y0135000D03*
X0200000Y0125000D03*
X0200000Y0115000D03*
X0200000Y0105000D03*
X0200000Y0095000D03*
X0040000Y0095000D03*
X0040000Y0105000D03*
X0040000Y0115000D03*
X0040000Y0125000D03*
X0040000Y0135000D03*
X0040000Y0145000D03*
X0040000Y0155000D03*
X0040000Y0165000D03*
X0040000Y0175000D03*
X0040000Y0185000D03*
X0030000Y0175000D03*
X0030000Y0165000D03*
X0030000Y0155000D03*
X0030000Y0145000D03*
X0030000Y0135000D03*
X0030000Y0125000D03*
X0030000Y0115000D03*
X0030000Y0105000D03*
X0030000Y0095000D03*
X0030000Y0075000D03*
X0030000Y0065000D03*
D16*
X0185000Y0220500D03*
X0185000Y0244500D03*
D17*
X0185000Y0239500D03*
X0180000Y0239500D03*
X0180000Y0244500D03*
X0175000Y0244500D03*
X0175000Y0239500D03*
X0170000Y0239500D03*
X0170000Y0244500D03*
X0165000Y0244500D03*
X0165000Y0239500D03*
X0165000Y0220500D03*
X0165000Y0215500D03*
X0170000Y0215500D03*
X0170000Y0220500D03*
X0175000Y0220500D03*
X0175000Y0215500D03*
X0180000Y0215500D03*
X0180000Y0220500D03*
X0185000Y0215500D03*
D18*
X0176000Y0206000D03*
X0173000Y0193000D03*
X0173000Y0180000D03*
X0166500Y0171500D03*
X0163000Y0167500D03*
X0159000Y0164000D03*
X0163750Y0152000D03*
X0166500Y0149250D03*
X0160000Y0146750D03*
X0156000Y0144750D03*
X0158750Y0142200D03*
X0157000Y0125000D03*
X0156000Y0120000D03*
X0166000Y0113500D03*
X0169500Y0101500D03*
X0172500Y0105000D03*
X0175500Y0108000D03*
X0190250Y0109750D03*
X0193000Y0115250D03*
X0194000Y0129250D03*
X0188250Y0132000D03*
X0190250Y0138000D03*
X0179000Y0139000D03*
X0176200Y0128400D03*
X0183250Y0086500D03*
X0186750Y0084750D03*
X0190000Y0082250D03*
X0192500Y0085000D03*
X0195250Y0082000D03*
X0177000Y0058500D03*
X0163000Y0059250D03*
X0154750Y0068500D03*
X0142500Y0048000D03*
X0149000Y0039500D03*
X0158950Y0045150D03*
X0161000Y0040000D03*
X0131000Y0089000D03*
X0126000Y0089500D03*
X0134500Y0101500D03*
X0137500Y0098500D03*
X0142000Y0098000D03*
X0146500Y0097500D03*
X0146000Y0102000D03*
X0143000Y0120000D03*
X0144700Y0136400D03*
X0143750Y0151500D03*
X0138750Y0154500D03*
X0142500Y0158000D03*
X0135000Y0156050D03*
X0133250Y0152250D03*
X0127901Y0149500D03*
X0127250Y0154250D03*
X0122500Y0148000D03*
X0122950Y0143550D03*
X0122500Y0139750D03*
X0131500Y0146250D03*
X0121700Y0161900D03*
X0114500Y0159750D03*
X0110200Y0161650D03*
X0108000Y0156000D03*
X0111000Y0153500D03*
X0103000Y0149000D03*
X0097500Y0148000D03*
X0097000Y0152000D03*
X0089500Y0164000D03*
X0092000Y0168000D03*
X0083000Y0158000D03*
X0078000Y0158000D03*
X0076500Y0161500D03*
X0072250Y0163000D03*
X0068750Y0160500D03*
X0061000Y0169500D03*
X0059000Y0173500D03*
X0058000Y0161750D03*
X0050500Y0159000D03*
X0065700Y0122400D03*
X0074000Y0127000D03*
X0081950Y0122150D03*
X0086500Y0110250D03*
X0091500Y0102000D03*
X0089000Y0098500D03*
X0090000Y0094250D03*
X0086250Y0093250D03*
X0082000Y0092500D03*
X0079000Y0107000D03*
X0075500Y0110500D03*
X0065400Y0111550D03*
X0082500Y0133500D03*
X0096250Y0129000D03*
X0099500Y0126250D03*
X0098750Y0122500D03*
X0103750Y0126750D03*
X0107500Y0125000D03*
X0111000Y0127250D03*
X0107200Y0135200D03*
X0106250Y0139000D03*
X0118000Y0121000D03*
X0118000Y0116500D03*
X0114500Y0113750D03*
X0110450Y0113650D03*
X0106500Y0113500D03*
X0102750Y0113000D03*
X0106000Y0098500D03*
X0102000Y0082500D03*
X0099250Y0080000D03*
X0102500Y0077500D03*
X0099000Y0075000D03*
X0103750Y0072500D03*
X0080200Y0045900D03*
X0122500Y0120000D03*
X0122500Y0125500D03*
X0147000Y0169500D03*
X0150500Y0172500D03*
X0147000Y0175000D03*
X0150500Y0178000D03*
X0147000Y0180000D03*
X0150000Y0193000D03*
X0154000Y0196000D03*
X0161000Y0193000D03*
X0146500Y0204500D03*
X0146500Y0212500D03*
X0136000Y0200500D03*
X0133000Y0196000D03*
X0130000Y0188000D03*
X0113000Y0195000D03*
X0113000Y0199500D03*
X0094500Y0189500D03*
X0080000Y0180500D03*
X0074000Y0178000D03*
X0042000Y0206500D03*
X0037000Y0206500D03*
X0023450Y0210900D03*
X0017450Y0225900D03*
X0008200Y0242300D03*
X0021000Y0257000D03*
X0024000Y0261000D03*
X0029000Y0253500D03*
X0037000Y0244500D03*
X0045000Y0243000D03*
X0050000Y0250000D03*
X0046500Y0256500D03*
X0043000Y0259000D03*
X0037500Y0262500D03*
X0038000Y0270500D03*
X0050000Y0259500D03*
X0059000Y0253000D03*
X0071000Y0253000D03*
X0074500Y0248000D03*
X0078000Y0263000D03*
X0084000Y0262500D03*
X0092000Y0253000D03*
X0096000Y0253000D03*
X0095500Y0260000D03*
X0106000Y0257000D03*
X0111000Y0261000D03*
X0116000Y0256000D03*
X0112000Y0251000D03*
X0126500Y0272000D03*
X0126000Y0276000D03*
X0123500Y0280000D03*
X0114500Y0283000D03*
X0120500Y0294000D03*
X0125000Y0292500D03*
X0131000Y0291000D03*
X0134000Y0297000D03*
X0134500Y0301500D03*
X0125000Y0302000D03*
X0120500Y0300500D03*
X0111000Y0302000D03*
X0121000Y0315000D03*
X0127500Y0313500D03*
X0127000Y0327000D03*
X0117000Y0335000D03*
X0117000Y0339000D03*
X0117000Y0343000D03*
X0117000Y0347000D03*
X0107500Y0359500D03*
X0117500Y0364000D03*
X0100500Y0341500D03*
X0090642Y0335366D03*
X0090000Y0344000D03*
X0080000Y0335500D03*
X0076500Y0337500D03*
X0072000Y0337500D03*
X0075500Y0324000D03*
X0075500Y0317500D03*
X0069000Y0323500D03*
X0059500Y0314500D03*
X0060000Y0307000D03*
X0051500Y0297000D03*
X0052000Y0289000D03*
X0045000Y0288000D03*
X0045000Y0295000D03*
X0033000Y0305000D03*
X0031000Y0312500D03*
X0023500Y0316000D03*
X0026000Y0323500D03*
X0026000Y0327500D03*
X0035000Y0329500D03*
X0034500Y0348500D03*
X0036000Y0352000D03*
X0037500Y0355500D03*
X0040500Y0353000D03*
X0047500Y0358000D03*
X0052000Y0358000D03*
X0055000Y0355000D03*
X0057500Y0352000D03*
X0053000Y0348000D03*
X0048500Y0344000D03*
X0048000Y0348000D03*
X0029500Y0363000D03*
X0016500Y0332000D03*
X0025500Y0302000D03*
X0023500Y0296500D03*
X0022500Y0292000D03*
X0020500Y0284000D03*
X0050000Y0310000D03*
X0060000Y0274500D03*
X0073000Y0275500D03*
X0084000Y0278500D03*
X0089500Y0278500D03*
X0088000Y0286500D03*
X0088000Y0291000D03*
X0088500Y0295000D03*
X0094500Y0300000D03*
X0094000Y0309500D03*
X0091500Y0316000D03*
X0084500Y0324000D03*
X0105000Y0326500D03*
X0098500Y0364000D03*
X0079500Y0373000D03*
X0067000Y0368000D03*
X0131500Y0271000D03*
X0137000Y0271000D03*
X0142500Y0271000D03*
X0146000Y0258000D03*
X0146000Y0252000D03*
X0142000Y0248000D03*
X0131000Y0245000D03*
X0129000Y0260000D03*
X0155000Y0293000D03*
X0149500Y0298500D03*
X0145000Y0299500D03*
X0154000Y0312000D03*
X0154000Y0316000D03*
X0162500Y0322500D03*
X0165500Y0320000D03*
X0164000Y0332000D03*
X0159000Y0336000D03*
X0150000Y0333000D03*
X0145000Y0339000D03*
X0142500Y0335000D03*
X0136000Y0360000D03*
X0155500Y0376000D03*
X0169450Y0377900D03*
X0179950Y0364900D03*
X0186000Y0353000D03*
X0185400Y0343300D03*
X0186000Y0338000D03*
X0177500Y0341500D03*
X0177000Y0351500D03*
X0160000Y0356000D03*
X0178000Y0329000D03*
X0181700Y0321000D03*
X0185300Y0319200D03*
X0192500Y0319000D03*
X0201500Y0323000D03*
X0208200Y0322500D03*
X0209100Y0329300D03*
X0205000Y0330000D03*
X0202000Y0338500D03*
X0202000Y0345500D03*
X0209000Y0344500D03*
X0219700Y0334100D03*
X0224500Y0335500D03*
X0223000Y0324500D03*
X0223000Y0309000D03*
X0222200Y0297000D03*
X0217000Y0296500D03*
X0204500Y0285000D03*
X0201000Y0272000D03*
X0191500Y0292500D03*
X0191500Y0296500D03*
X0183000Y0303500D03*
X0163000Y0274000D03*
X0191000Y0238000D03*
X0201700Y0216400D03*
X0207000Y0217000D03*
X0216450Y0209900D03*
X0215450Y0225900D03*
X0222000Y0248000D03*
X0221500Y0277000D03*
X0206500Y0313500D03*
X0223000Y0353000D03*
X0207950Y0377900D03*
X0196450Y0364900D03*
X0201000Y0195000D03*
X0222000Y0194000D03*
X0230950Y0190900D03*
X0231500Y0145500D03*
X0220500Y0145500D03*
X0016450Y0191400D03*
D19*
X0020000Y0234000D02*
X0041000Y0234000D01*
X0047000Y0240000D01*
X0055000Y0240000D01*
X0060000Y0235000D01*
X0020000Y0234000D02*
X0015000Y0239000D01*
X0015000Y0303000D01*
X0030000Y0318000D01*
X0030000Y0331000D01*
X0043000Y0359000D02*
X0047000Y0363000D01*
X0073000Y0363000D01*
X0077000Y0359000D01*
X0169450Y0375050D02*
X0169450Y0377900D01*
X0169450Y0375050D02*
X0179600Y0364900D01*
X0179950Y0364900D01*
X0196450Y0364900D02*
X0207950Y0376400D01*
X0207950Y0377900D01*
D20*
X0185400Y0343300D02*
X0171600Y0329500D01*
X0153500Y0329500D01*
X0150000Y0333000D01*
X0145000Y0334000D02*
X0152000Y0327000D01*
X0175700Y0327000D01*
X0181700Y0321000D01*
X0184700Y0319200D02*
X0183000Y0317500D01*
X0179000Y0317500D01*
X0177000Y0319500D01*
X0177000Y0320000D01*
X0172000Y0325000D01*
X0151500Y0325000D01*
X0142500Y0334000D01*
X0142500Y0335000D01*
X0145000Y0334000D02*
X0145000Y0339000D01*
X0150000Y0322000D02*
X0162000Y0322000D01*
X0162500Y0322500D01*
X0165500Y0320000D02*
X0164500Y0319000D01*
X0150000Y0319000D01*
X0146000Y0315000D01*
X0146000Y0307000D01*
X0141000Y0302000D01*
X0141000Y0300000D01*
X0132000Y0291000D01*
X0131000Y0291000D01*
X0127500Y0287000D02*
X0142500Y0272000D01*
X0142500Y0271000D01*
X0145000Y0267500D02*
X0147000Y0269500D01*
X0147000Y0276000D01*
X0145000Y0278000D01*
X0145000Y0299500D01*
X0149500Y0298500D02*
X0149500Y0267500D01*
X0148000Y0266000D01*
X0087500Y0266000D01*
X0084000Y0262500D01*
X0083500Y0267500D02*
X0145000Y0267500D01*
X0146000Y0258000D02*
X0146000Y0252000D01*
X0146000Y0241000D01*
X0140000Y0235000D01*
X0130000Y0235000D02*
X0130000Y0236000D01*
X0142000Y0248000D01*
X0124000Y0248000D01*
X0116000Y0256000D01*
X0111000Y0256000D02*
X0120000Y0247000D01*
X0120000Y0235000D01*
X0121000Y0235000D01*
X0131000Y0245000D01*
X0130000Y0225000D02*
X0130000Y0224000D01*
X0143000Y0211000D01*
X0143000Y0203000D01*
X0146500Y0199500D01*
X0162500Y0199500D01*
X0175000Y0212000D01*
X0175000Y0215500D01*
X0180000Y0215500D02*
X0180000Y0203000D01*
X0170500Y0193500D01*
X0172500Y0193500D01*
X0173000Y0193000D01*
X0170500Y0193500D02*
X0163500Y0186500D01*
X0143000Y0186500D01*
X0138750Y0182250D01*
X0138750Y0154500D01*
X0135000Y0156050D02*
X0135000Y0165000D01*
X0137000Y0167000D01*
X0137000Y0183500D01*
X0142000Y0188500D01*
X0160750Y0188500D01*
X0163125Y0190875D01*
X0161000Y0193000D01*
X0163125Y0190875D02*
X0176000Y0203750D01*
X0176000Y0206000D01*
X0162500Y0199500D02*
X0153500Y0190500D01*
X0141000Y0190500D01*
X0134500Y0184000D01*
X0134500Y0168000D01*
X0131000Y0164500D01*
X0131000Y0154500D01*
X0133250Y0152250D01*
X0133000Y0149500D02*
X0127901Y0149500D01*
X0127250Y0154250D02*
X0127500Y0154500D01*
X0127500Y0174500D01*
X0130000Y0177000D01*
X0130000Y0188000D01*
X0131000Y0204000D02*
X0137000Y0204000D01*
X0148000Y0193000D01*
X0150000Y0193000D01*
X0147500Y0196000D02*
X0154000Y0196000D01*
X0147500Y0196000D02*
X0140000Y0203500D01*
X0140000Y0211000D01*
X0132000Y0219000D01*
X0126000Y0219000D01*
X0120000Y0225000D01*
X0110000Y0235000D02*
X0112000Y0237000D01*
X0112000Y0251000D01*
X0111000Y0256000D02*
X0111000Y0261000D01*
X0106000Y0257000D02*
X0100000Y0257000D01*
X0096000Y0253000D01*
X0083500Y0267500D02*
X0079000Y0263000D01*
X0078000Y0263000D01*
X0090500Y0272000D02*
X0084000Y0278500D01*
X0089500Y0278500D02*
X0092000Y0276000D01*
X0126000Y0276000D01*
X0126500Y0272000D02*
X0090500Y0272000D01*
X0095500Y0280000D02*
X0123500Y0280000D01*
X0125500Y0283000D02*
X0130000Y0278500D01*
X0130000Y0272500D01*
X0131500Y0271000D01*
X0137000Y0271000D02*
X0137000Y0274500D01*
X0126000Y0285500D01*
X0093500Y0285500D01*
X0088000Y0291000D01*
X0088500Y0295000D02*
X0096500Y0287000D01*
X0127500Y0287000D01*
X0125500Y0283000D02*
X0114500Y0283000D01*
X0121000Y0288500D02*
X0125000Y0292500D01*
X0121000Y0288500D02*
X0100500Y0288500D01*
X0089000Y0300000D01*
X0037500Y0300000D01*
X0034000Y0296500D01*
X0023500Y0296500D01*
X0010000Y0315000D02*
X0018500Y0323500D01*
X0026000Y0323500D01*
X0026000Y0327500D02*
X0012500Y0327500D01*
X0010000Y0325000D01*
X0034500Y0348500D02*
X0047500Y0348500D01*
X0048000Y0348000D01*
X0055000Y0355000D01*
X0052000Y0358000D02*
X0044500Y0350500D01*
X0037500Y0350500D01*
X0036000Y0352000D01*
X0037500Y0355500D02*
X0034449Y0358551D01*
X0034449Y0368000D01*
X0067000Y0368000D01*
X0047500Y0358000D02*
X0042500Y0353000D01*
X0040500Y0353000D01*
X0034449Y0368000D02*
X0034449Y0375744D01*
X0075500Y0324000D02*
X0075500Y0317500D01*
X0084500Y0324000D02*
X0088000Y0324000D01*
X0094500Y0317500D01*
X0123500Y0317500D01*
X0127500Y0313500D01*
X0121000Y0315000D02*
X0092500Y0315000D01*
X0091500Y0316000D01*
X0089000Y0286500D02*
X0095500Y0280000D01*
X0089000Y0286500D02*
X0088000Y0286500D01*
X0060000Y0307000D02*
X0059500Y0307500D01*
X0059500Y0314500D01*
X0051500Y0297000D02*
X0049500Y0295000D01*
X0045000Y0295000D01*
X0046000Y0289000D02*
X0045000Y0288000D01*
X0046000Y0289000D02*
X0052000Y0289000D01*
X0043000Y0259000D02*
X0026000Y0259000D01*
X0024000Y0261000D01*
X0021000Y0257000D02*
X0022000Y0256000D01*
X0046000Y0256000D01*
X0046500Y0256500D01*
X0045000Y0243000D02*
X0045000Y0242000D01*
X0047000Y0240000D01*
X0047264Y0209500D02*
X0034618Y0209500D01*
X0033500Y0208382D01*
X0033500Y0190100D01*
X0034280Y0190100D01*
X0035100Y0189280D01*
X0035100Y0180720D01*
X0034280Y0179900D01*
X0033500Y0179900D01*
X0033500Y0179500D01*
X0037537Y0179500D01*
X0038986Y0180100D01*
X0041014Y0180100D01*
X0042463Y0179500D01*
X0047264Y0179500D01*
X0049500Y0181736D01*
X0049500Y0207264D01*
X0047264Y0209500D01*
X0047345Y0209419D02*
X0034537Y0209419D01*
X0033738Y0208620D02*
X0048144Y0208620D01*
X0048942Y0207822D02*
X0033500Y0207822D01*
X0033500Y0207023D02*
X0049500Y0207023D01*
X0049500Y0206225D02*
X0033500Y0206225D01*
X0033500Y0205426D02*
X0049500Y0205426D01*
X0049500Y0204628D02*
X0033500Y0204628D01*
X0033500Y0203829D02*
X0049500Y0203829D01*
X0049500Y0203031D02*
X0033500Y0203031D01*
X0033500Y0202232D02*
X0049500Y0202232D01*
X0049500Y0201434D02*
X0033500Y0201434D01*
X0033500Y0200635D02*
X0049500Y0200635D01*
X0049500Y0199837D02*
X0033500Y0199837D01*
X0033500Y0199038D02*
X0049500Y0199038D01*
X0049500Y0198240D02*
X0033500Y0198240D01*
X0033500Y0197441D02*
X0049500Y0197441D01*
X0049500Y0196643D02*
X0033500Y0196643D01*
X0033500Y0195844D02*
X0049500Y0195844D01*
X0049500Y0195046D02*
X0033500Y0195046D01*
X0033500Y0194247D02*
X0049500Y0194247D01*
X0049500Y0193449D02*
X0033500Y0193449D01*
X0033500Y0192650D02*
X0049500Y0192650D01*
X0049500Y0191852D02*
X0033500Y0191852D01*
X0033500Y0191053D02*
X0049500Y0191053D01*
X0049500Y0190255D02*
X0033500Y0190255D01*
X0034924Y0189456D02*
X0037952Y0189456D01*
X0038119Y0189541D02*
X0037432Y0189191D01*
X0036808Y0188737D01*
X0036262Y0188192D01*
X0035809Y0187568D01*
X0035459Y0186881D01*
X0035221Y0186147D01*
X0035102Y0185400D01*
X0039600Y0185400D01*
X0039600Y0189898D01*
X0038853Y0189779D01*
X0038119Y0189541D01*
X0039600Y0189456D02*
X0040400Y0189456D01*
X0040400Y0189898D02*
X0041147Y0189779D01*
X0041881Y0189541D01*
X0042568Y0189191D01*
X0043192Y0188737D01*
X0043737Y0188192D01*
X0044191Y0187568D01*
X0044541Y0186881D01*
X0044779Y0186147D01*
X0044898Y0185400D01*
X0040400Y0185400D01*
X0040400Y0184600D01*
X0044898Y0184600D01*
X0044779Y0183853D01*
X0044541Y0183119D01*
X0044191Y0182432D01*
X0043737Y0181808D01*
X0043192Y0181262D01*
X0042568Y0180809D01*
X0041881Y0180459D01*
X0041147Y0180221D01*
X0040400Y0180102D01*
X0040400Y0184600D01*
X0039600Y0184600D01*
X0039600Y0180102D01*
X0038853Y0180221D01*
X0038119Y0180459D01*
X0037432Y0180809D01*
X0036808Y0181262D01*
X0036262Y0181808D01*
X0035809Y0182432D01*
X0035459Y0183119D01*
X0035221Y0183853D01*
X0035102Y0184600D01*
X0039600Y0184600D01*
X0039600Y0185400D01*
X0040400Y0185400D01*
X0040400Y0189898D01*
X0040400Y0188658D02*
X0039600Y0188658D01*
X0039600Y0187859D02*
X0040400Y0187859D01*
X0040400Y0187061D02*
X0039600Y0187061D01*
X0039600Y0186262D02*
X0040400Y0186262D01*
X0040400Y0185464D02*
X0039600Y0185464D01*
X0039600Y0184665D02*
X0035100Y0184665D01*
X0035100Y0183867D02*
X0035218Y0183867D01*
X0035100Y0183068D02*
X0035485Y0183068D01*
X0035100Y0182270D02*
X0035927Y0182270D01*
X0036599Y0181471D02*
X0035100Y0181471D01*
X0035052Y0180672D02*
X0037700Y0180672D01*
X0038440Y0179874D02*
X0033500Y0179874D01*
X0035100Y0185464D02*
X0035112Y0185464D01*
X0035100Y0186262D02*
X0035258Y0186262D01*
X0035100Y0187061D02*
X0035551Y0187061D01*
X0035100Y0187859D02*
X0036021Y0187859D01*
X0036728Y0188658D02*
X0035100Y0188658D01*
X0039600Y0183867D02*
X0040400Y0183867D01*
X0040400Y0184665D02*
X0049500Y0184665D01*
X0049500Y0183867D02*
X0044782Y0183867D01*
X0044515Y0183068D02*
X0049500Y0183068D01*
X0049500Y0182270D02*
X0044073Y0182270D01*
X0043401Y0181471D02*
X0049235Y0181471D01*
X0048436Y0180672D02*
X0042300Y0180672D01*
X0041560Y0179874D02*
X0047638Y0179874D01*
X0049500Y0185464D02*
X0044888Y0185464D01*
X0044742Y0186262D02*
X0049500Y0186262D01*
X0049500Y0187061D02*
X0044449Y0187061D01*
X0043979Y0187859D02*
X0049500Y0187859D01*
X0049500Y0188658D02*
X0043272Y0188658D01*
X0042048Y0189456D02*
X0049500Y0189456D01*
X0040400Y0183068D02*
X0039600Y0183068D01*
X0039600Y0182270D02*
X0040400Y0182270D01*
X0040400Y0181471D02*
X0039600Y0181471D01*
X0039600Y0180672D02*
X0040400Y0180672D01*
X0050000Y0173500D02*
X0045000Y0168500D01*
X0045000Y0089500D01*
X0035000Y0079500D01*
X0035000Y0051500D01*
X0029500Y0046000D01*
X0029500Y0025500D01*
X0030000Y0025000D01*
X0034000Y0019000D02*
X0030000Y0015000D01*
X0034000Y0019000D02*
X0034000Y0048000D01*
X0036500Y0050500D01*
X0036500Y0078000D01*
X0047000Y0088500D01*
X0047000Y0164500D01*
X0052000Y0169500D01*
X0061000Y0169500D01*
X0059000Y0173500D02*
X0050000Y0173500D01*
X0059250Y0163000D02*
X0058000Y0161750D01*
X0059250Y0163000D02*
X0072250Y0163000D01*
X0075000Y0161500D02*
X0070500Y0157000D01*
X0053000Y0157000D01*
X0049000Y0153000D01*
X0049000Y0088000D01*
X0038000Y0077000D01*
X0038000Y0049000D01*
X0035500Y0046500D01*
X0035500Y0020000D01*
X0040000Y0015500D01*
X0040000Y0015000D01*
X0045000Y0019500D02*
X0049500Y0015000D01*
X0050000Y0015000D01*
X0045000Y0019500D02*
X0045000Y0029500D01*
X0041000Y0033500D01*
X0041000Y0075000D01*
X0053000Y0087000D01*
X0053000Y0152000D01*
X0054500Y0153500D01*
X0078000Y0153500D01*
X0082500Y0158000D01*
X0083000Y0158000D01*
X0078000Y0158000D02*
X0074500Y0158000D01*
X0071500Y0155000D01*
X0053500Y0155000D01*
X0051000Y0152500D01*
X0051000Y0087500D01*
X0039500Y0076000D01*
X0039500Y0025500D01*
X0040000Y0025000D01*
X0042500Y0034500D02*
X0050000Y0027000D01*
X0050000Y0025000D01*
X0055000Y0027000D02*
X0055000Y0019500D01*
X0059500Y0015000D01*
X0060000Y0015000D01*
X0065000Y0020000D02*
X0070000Y0015000D01*
X0065000Y0020000D02*
X0065000Y0028500D01*
X0048500Y0045000D01*
X0048500Y0071000D01*
X0060500Y0083000D01*
X0060500Y0130500D01*
X0063500Y0133500D01*
X0082500Y0133500D01*
X0096250Y0129000D02*
X0106250Y0139000D01*
X0107200Y0135200D02*
X0107200Y0133950D01*
X0099500Y0126250D01*
X0098750Y0122500D02*
X0086500Y0110250D01*
X0091500Y0102000D02*
X0069500Y0102000D01*
X0066000Y0098500D01*
X0066000Y0081000D01*
X0054000Y0069000D01*
X0054000Y0048000D01*
X0069000Y0033000D01*
X0073000Y0033000D01*
X0080000Y0026000D01*
X0080000Y0025000D01*
X0075000Y0027000D02*
X0075000Y0020000D01*
X0080000Y0015000D01*
X0085000Y0019500D02*
X0089500Y0015000D01*
X0090000Y0015000D01*
X0085000Y0019500D02*
X0085000Y0027500D01*
X0077500Y0035000D01*
X0069500Y0035000D01*
X0055500Y0049000D01*
X0055500Y0067500D01*
X0068000Y0080000D01*
X0068000Y0096500D01*
X0070000Y0098500D01*
X0089000Y0098500D01*
X0092750Y0099750D02*
X0096500Y0103500D01*
X0096500Y0115500D01*
X0103750Y0122750D01*
X0103750Y0126750D01*
X0107200Y0134700D02*
X0107200Y0135200D01*
X0111000Y0127250D02*
X0111000Y0124250D01*
X0103500Y0116750D01*
X0102500Y0116750D01*
X0099500Y0113750D01*
X0099500Y0102000D01*
X0096000Y0098500D01*
X0096000Y0079500D01*
X0098000Y0077500D01*
X0102500Y0077500D01*
X0099250Y0080000D02*
X0097500Y0081750D01*
X0097500Y0097750D01*
X0102750Y0103000D01*
X0102750Y0113000D01*
X0106500Y0113500D02*
X0106500Y0104750D01*
X0099750Y0098000D01*
X0099750Y0084750D01*
X0102000Y0082500D01*
X0099000Y0075000D02*
X0097500Y0075000D01*
X0094500Y0078000D01*
X0094500Y0099000D01*
X0098000Y0102500D01*
X0098000Y0114500D01*
X0107500Y0124000D01*
X0107500Y0125000D01*
X0122500Y0139750D02*
X0156500Y0139750D01*
X0158750Y0142200D01*
X0156000Y0144750D02*
X0149750Y0144750D01*
X0146500Y0141500D01*
X0125000Y0141500D01*
X0122950Y0143550D01*
X0122500Y0148000D02*
X0123750Y0148000D01*
X0128500Y0143250D01*
X0145500Y0143250D01*
X0150000Y0147750D01*
X0159250Y0147750D01*
X0160000Y0146750D01*
X0163750Y0152000D02*
X0148250Y0152000D01*
X0144750Y0148500D01*
X0134000Y0148500D01*
X0133000Y0149500D01*
X0131500Y0146250D02*
X0145250Y0146250D01*
X0148250Y0149250D01*
X0166500Y0149250D01*
X0159000Y0164000D02*
X0180500Y0164000D01*
X0183500Y0161000D01*
X0183500Y0117500D01*
X0178500Y0112500D01*
X0178500Y0084500D01*
X0190500Y0072500D01*
X0190500Y0058000D01*
X0180000Y0047500D01*
X0180000Y0025000D01*
X0185000Y0020000D02*
X0180000Y0015000D01*
X0175000Y0020000D02*
X0170000Y0015000D01*
X0175000Y0020000D02*
X0175000Y0045500D01*
X0188500Y0059000D01*
X0188500Y0072000D01*
X0176500Y0084000D01*
X0176500Y0107000D01*
X0175500Y0108000D01*
X0172500Y0105000D02*
X0174500Y0103000D01*
X0174500Y0083500D01*
X0186500Y0071500D01*
X0186500Y0060500D01*
X0170000Y0044000D01*
X0170000Y0025000D01*
X0165000Y0020000D02*
X0160000Y0015000D01*
X0165000Y0020000D02*
X0165000Y0042500D01*
X0184500Y0062000D01*
X0184500Y0071000D01*
X0172500Y0083000D01*
X0172500Y0098500D01*
X0169500Y0101500D01*
X0166000Y0113500D02*
X0166000Y0068750D01*
X0165250Y0068000D01*
X0165250Y0061500D01*
X0163000Y0059250D01*
X0154750Y0068500D02*
X0157500Y0071250D01*
X0157500Y0091000D01*
X0159000Y0092500D01*
X0159000Y0117500D01*
X0156500Y0120000D01*
X0156000Y0120000D01*
X0180500Y0112000D02*
X0180500Y0085000D01*
X0192500Y0073000D01*
X0192500Y0056500D01*
X0185000Y0049000D01*
X0185000Y0020000D01*
X0161000Y0026000D02*
X0160000Y0025000D01*
X0161000Y0026000D02*
X0161000Y0040000D01*
X0160500Y0043000D02*
X0148000Y0030500D01*
X0136000Y0030500D01*
X0130500Y0025000D01*
X0130000Y0025000D01*
X0149000Y0039500D02*
X0149000Y0041500D01*
X0142500Y0048000D01*
X0135500Y0059250D02*
X0140000Y0063750D01*
X0140000Y0065000D01*
X0135500Y0059250D02*
X0094750Y0059250D01*
X0087000Y0067000D01*
X0087000Y0087500D01*
X0082000Y0092500D01*
X0086250Y0093250D02*
X0088750Y0090750D01*
X0088750Y0068750D01*
X0096750Y0060750D01*
X0124250Y0060750D01*
X0128500Y0065000D01*
X0130000Y0065000D01*
X0120000Y0065000D02*
X0119750Y0065000D01*
X0114750Y0070000D01*
X0094250Y0070000D01*
X0090750Y0073500D01*
X0090750Y0093500D01*
X0090000Y0094250D01*
X0092750Y0099750D02*
X0092750Y0076750D01*
X0097000Y0072500D01*
X0103750Y0072500D01*
X0079000Y0107000D02*
X0068500Y0107000D01*
X0064000Y0102500D01*
X0064000Y0081500D01*
X0052000Y0069500D01*
X0052000Y0047500D01*
X0068500Y0031000D01*
X0071000Y0031000D01*
X0075000Y0027000D01*
X0070000Y0026500D02*
X0070000Y0025000D01*
X0070000Y0026500D02*
X0050500Y0046000D01*
X0050500Y0070500D01*
X0062500Y0082500D01*
X0062500Y0103500D01*
X0069500Y0110500D01*
X0075500Y0110500D01*
X0056500Y0085000D02*
X0044500Y0073000D01*
X0044500Y0037500D01*
X0055000Y0027000D01*
X0060000Y0025500D02*
X0060000Y0025000D01*
X0060000Y0025500D02*
X0046500Y0039000D01*
X0046500Y0072000D01*
X0058500Y0084000D01*
X0058500Y0142000D01*
X0061500Y0145000D01*
X0100000Y0145000D01*
X0103000Y0148000D01*
X0103000Y0149000D01*
X0100000Y0153500D02*
X0089500Y0164000D01*
X0092000Y0168000D02*
X0104000Y0156000D01*
X0108000Y0156000D01*
X0111000Y0153500D02*
X0100000Y0153500D01*
X0097000Y0152000D02*
X0057500Y0152000D01*
X0054500Y0149000D01*
X0054500Y0086000D01*
X0042500Y0074000D01*
X0042500Y0034500D01*
X0056500Y0085000D02*
X0056500Y0146500D01*
X0058000Y0148000D01*
X0097500Y0148000D01*
X0076500Y0161500D02*
X0075000Y0161500D01*
X0068750Y0160500D02*
X0067250Y0159000D01*
X0050500Y0159000D01*
X0110000Y0225000D02*
X0131000Y0204000D01*
X0146500Y0204500D02*
X0146500Y0212500D01*
X0166500Y0171500D02*
X0180500Y0171500D01*
X0192000Y0160000D01*
X0205000Y0160000D01*
X0210000Y0165000D01*
X0220500Y0145500D02*
X0231500Y0145500D01*
X0210000Y0105000D02*
X0205000Y0100000D01*
X0197203Y0100000D01*
X0195250Y0098047D01*
X0195250Y0082000D01*
X0192500Y0085000D02*
X0192500Y0107500D01*
X0200000Y0115000D01*
X0194000Y0116250D02*
X0194000Y0129250D01*
X0189000Y0131250D02*
X0188250Y0132000D01*
X0189000Y0131250D02*
X0189000Y0117500D01*
X0185250Y0113750D01*
X0185250Y0088250D01*
X0183500Y0086500D01*
X0183250Y0086500D01*
X0186750Y0084750D02*
X0187750Y0085750D01*
X0187750Y0113750D01*
X0191000Y0117000D01*
X0191000Y0137250D01*
X0190250Y0138000D01*
X0185500Y0117000D02*
X0180500Y0112000D01*
X0185500Y0117000D02*
X0185500Y0163000D01*
X0181000Y0167500D01*
X0163000Y0167500D01*
X0194000Y0116250D02*
X0193000Y0115250D01*
X0190250Y0109750D02*
X0190000Y0109000D01*
X0190000Y0082250D01*
X0177000Y0058500D02*
X0177000Y0057500D01*
X0162500Y0043000D01*
X0160500Y0043000D01*
X0202000Y0194000D02*
X0222000Y0194000D01*
X0202000Y0194000D02*
X0201000Y0195000D01*
X0222200Y0297000D02*
X0219700Y0299500D01*
X0187000Y0299500D01*
X0183000Y0303500D01*
X0184700Y0319200D02*
X0185300Y0319200D01*
X0150000Y0322000D02*
X0143000Y0315000D01*
X0143000Y0308000D01*
X0138000Y0303000D01*
X0138000Y0300000D01*
X0135000Y0297000D01*
X0134000Y0297000D01*
D21*
X0164000Y0259000D03*
X0167000Y0262000D03*
X0214742Y0285466D03*
X0077000Y0359000D03*
X0063000Y0358500D03*
X0059000Y0358500D03*
X0043000Y0359000D03*
X0030000Y0331000D03*
D22*
X0208200Y0322500D02*
X0221000Y0322500D01*
X0223000Y0324500D01*
D23*
X0219700Y0334100D02*
X0211700Y0334100D01*
X0209100Y0331500D01*
X0209100Y0329300D01*
D24*
X0114500Y0159750D02*
X0114500Y0113750D01*
M02*
