G75*
%MOIN*%
%OFA0B0*%
%FSLAX25Y25*%
%IPPOS*%
%LPD*%
%AMOC8*
5,1,8,0,0,1.08239X$1,22.5*
%
%ADD10OC8,0.07600*%
%ADD11R,0.07000X0.07000*%
%ADD12OC8,0.07000*%
%ADD13C,0.14100*%
%ADD14C,0.05143*%
%ADD15R,0.09000X0.09000*%
%ADD16C,0.09000*%
%ADD17C,0.05340*%
%ADD18R,0.05734X0.05734*%
%ADD19C,0.05734*%
%ADD20C,0.05200*%
D10*
X0100000Y0055000D03*
X0100000Y0065000D03*
X0120000Y0065000D03*
X0120000Y0055000D03*
X0130000Y0055000D03*
X0130000Y0065000D03*
X0140000Y0065000D03*
X0140000Y0055000D03*
X0140000Y0225000D03*
X0140000Y0235000D03*
X0130000Y0235000D03*
X0130000Y0225000D03*
X0120000Y0225000D03*
X0120000Y0235000D03*
X0110000Y0235000D03*
X0110000Y0225000D03*
X0100000Y0225000D03*
X0100000Y0235000D03*
X0090000Y0235000D03*
X0090000Y0225000D03*
X0080000Y0225000D03*
X0080000Y0235000D03*
X0070000Y0235000D03*
X0070000Y0225000D03*
X0060000Y0225000D03*
X0060000Y0235000D03*
X0050000Y0235000D03*
X0050000Y0225000D03*
X0010000Y0295000D03*
X0010000Y0305000D03*
X0010000Y0315000D03*
X0010000Y0325000D03*
X0010000Y0335000D03*
X0010000Y0345000D03*
X0010000Y0354999D03*
X0171000Y0319500D03*
X0171000Y0309500D03*
X0171000Y0299500D03*
X0205000Y0245000D03*
X0205000Y0235000D03*
D11*
X0180000Y0025000D03*
X0180000Y0015000D03*
X0130000Y0015000D03*
X0130000Y0025000D03*
X0080000Y0025000D03*
X0080000Y0015000D03*
X0030000Y0015000D03*
X0030000Y0025000D03*
D12*
X0040000Y0025000D03*
X0040000Y0015000D03*
X0050000Y0015000D03*
X0050000Y0025000D03*
X0060000Y0025000D03*
X0060000Y0015000D03*
X0070000Y0015000D03*
X0070000Y0025000D03*
X0090000Y0025000D03*
X0090000Y0015000D03*
X0100000Y0015000D03*
X0100000Y0025000D03*
X0110000Y0025000D03*
X0110000Y0015000D03*
X0120000Y0015000D03*
X0120000Y0025000D03*
X0140000Y0025000D03*
X0140000Y0015000D03*
X0150000Y0015000D03*
X0150000Y0025000D03*
X0160000Y0025000D03*
X0160000Y0015000D03*
X0170000Y0015000D03*
X0170000Y0025000D03*
X0190000Y0025000D03*
X0190000Y0015000D03*
X0200000Y0015000D03*
X0200000Y0025000D03*
X0210000Y0025000D03*
X0210000Y0015000D03*
D13*
X0015000Y0020000D03*
X0225000Y0020000D03*
X0225000Y0375000D03*
X0015000Y0375000D03*
D14*
X0034449Y0373972D02*
X0034449Y0377516D01*
X0065551Y0377516D02*
X0065551Y0373972D01*
D15*
X0030000Y0185000D03*
X0030000Y0055000D03*
X0210000Y0055000D03*
D16*
X0210000Y0065000D03*
X0210000Y0075000D03*
X0210000Y0095000D03*
X0210000Y0105000D03*
X0210000Y0115000D03*
X0210000Y0125000D03*
X0210000Y0135000D03*
X0210000Y0145000D03*
X0210000Y0155000D03*
X0210000Y0165000D03*
X0210000Y0175000D03*
X0210000Y0185000D03*
X0200000Y0185000D03*
X0200000Y0175000D03*
X0200000Y0165000D03*
X0200000Y0155000D03*
X0200000Y0145000D03*
X0200000Y0135000D03*
X0200000Y0125000D03*
X0200000Y0115000D03*
X0200000Y0105000D03*
X0200000Y0095000D03*
X0040000Y0095000D03*
X0040000Y0105000D03*
X0040000Y0115000D03*
X0040000Y0125000D03*
X0040000Y0135000D03*
X0040000Y0145000D03*
X0040000Y0155000D03*
X0040000Y0165000D03*
X0040000Y0175000D03*
X0040000Y0185000D03*
X0030000Y0175000D03*
X0030000Y0165000D03*
X0030000Y0155000D03*
X0030000Y0145000D03*
X0030000Y0135000D03*
X0030000Y0125000D03*
X0030000Y0115000D03*
X0030000Y0105000D03*
X0030000Y0095000D03*
X0030000Y0075000D03*
X0030000Y0065000D03*
D17*
X0014000Y0204972D03*
X0014000Y0214028D03*
X0183972Y0376000D03*
X0193028Y0376000D03*
X0226000Y0214028D03*
X0226000Y0204972D03*
D18*
X0185000Y0220500D03*
X0185000Y0244500D03*
D19*
X0185000Y0239500D03*
X0180000Y0239500D03*
X0180000Y0244500D03*
X0175000Y0244500D03*
X0175000Y0239500D03*
X0170000Y0239500D03*
X0170000Y0244500D03*
X0165000Y0244500D03*
X0165000Y0239500D03*
X0165000Y0220500D03*
X0165000Y0215500D03*
X0170000Y0215500D03*
X0170000Y0220500D03*
X0175000Y0220500D03*
X0175000Y0215500D03*
X0180000Y0215500D03*
X0180000Y0220500D03*
X0185000Y0215500D03*
D20*
X0164000Y0259000D03*
X0167000Y0262000D03*
X0214742Y0285466D03*
X0077000Y0359000D03*
X0063000Y0358500D03*
X0059000Y0358500D03*
X0043000Y0359000D03*
X0030000Y0331000D03*
M02*
