G75*
%MOIN*%
%OFA0B0*%
%FSLAX25Y25*%
%IPPOS*%
%LPD*%
%AMOC8*
5,1,8,0,0,1.08239X$1,22.5*
%
%ADD10C,0.01000*%
%ADD11C,0.00000*%
D10*
X0005000Y0010000D02*
X0005000Y0189500D01*
X0008000Y0199500D02*
X0008238Y0199871D01*
X0008468Y0200248D01*
X0008688Y0200630D01*
X0008898Y0201018D01*
X0009100Y0201411D01*
X0009291Y0201808D01*
X0009473Y0202210D01*
X0009645Y0202616D01*
X0009808Y0203027D01*
X0009960Y0203441D01*
X0010102Y0203859D01*
X0010234Y0204280D01*
X0010355Y0204704D01*
X0010467Y0205131D01*
X0010568Y0205560D01*
X0010658Y0205992D01*
X0010738Y0206426D01*
X0010807Y0206862D01*
X0010866Y0207299D01*
X0010914Y0207738D01*
X0010952Y0208177D01*
X0010979Y0208618D01*
X0010995Y0209059D01*
X0011000Y0209500D01*
X0010995Y0209941D01*
X0010979Y0210382D01*
X0010952Y0210823D01*
X0010914Y0211262D01*
X0010866Y0211701D01*
X0010807Y0212138D01*
X0010738Y0212574D01*
X0010658Y0213008D01*
X0010568Y0213440D01*
X0010467Y0213869D01*
X0010355Y0214296D01*
X0010234Y0214720D01*
X0010102Y0215141D01*
X0009960Y0215559D01*
X0009808Y0215973D01*
X0009645Y0216384D01*
X0009473Y0216790D01*
X0009291Y0217192D01*
X0009100Y0217589D01*
X0008898Y0217982D01*
X0008688Y0218370D01*
X0008468Y0218752D01*
X0008238Y0219129D01*
X0008000Y0219500D01*
X0005000Y0229500D02*
X0005000Y0385000D01*
X0030000Y0385000D01*
X0030000Y0384996D02*
X0033465Y0384996D01*
X0033465Y0381059D01*
X0038780Y0381059D01*
X0038780Y0372988D01*
X0042520Y0372988D01*
X0042520Y0374563D01*
X0042520Y0374661D02*
X0042520Y0381059D01*
X0057480Y0381059D01*
X0057480Y0372988D01*
X0061220Y0372988D01*
X0061220Y0381059D01*
X0066535Y0381059D01*
X0066535Y0384996D01*
X0070000Y0384996D01*
X0070000Y0385000D02*
X0168500Y0385000D01*
X0168941Y0384995D01*
X0169382Y0384979D01*
X0169823Y0384952D01*
X0170262Y0384914D01*
X0170701Y0384866D01*
X0171138Y0384807D01*
X0171574Y0384738D01*
X0172008Y0384658D01*
X0172440Y0384568D01*
X0172869Y0384467D01*
X0173296Y0384355D01*
X0173720Y0384234D01*
X0174141Y0384102D01*
X0174559Y0383960D01*
X0174973Y0383808D01*
X0175384Y0383645D01*
X0175790Y0383473D01*
X0176192Y0383291D01*
X0176589Y0383100D01*
X0176982Y0382898D01*
X0177369Y0382688D01*
X0177752Y0382468D01*
X0178129Y0382238D01*
X0178500Y0382000D01*
X0178871Y0381762D01*
X0179248Y0381532D01*
X0179630Y0381312D01*
X0180018Y0381102D01*
X0180411Y0380900D01*
X0180808Y0380709D01*
X0181210Y0380527D01*
X0181616Y0380355D01*
X0182027Y0380192D01*
X0182441Y0380040D01*
X0182859Y0379898D01*
X0183280Y0379766D01*
X0183704Y0379645D01*
X0184131Y0379533D01*
X0184560Y0379432D01*
X0184992Y0379342D01*
X0185426Y0379262D01*
X0185862Y0379193D01*
X0186299Y0379134D01*
X0186738Y0379086D01*
X0187177Y0379048D01*
X0187618Y0379021D01*
X0188059Y0379005D01*
X0188500Y0379000D01*
X0188941Y0379005D01*
X0189382Y0379021D01*
X0189823Y0379048D01*
X0190262Y0379086D01*
X0190701Y0379134D01*
X0191138Y0379193D01*
X0191574Y0379262D01*
X0192008Y0379342D01*
X0192440Y0379432D01*
X0192869Y0379533D01*
X0193296Y0379645D01*
X0193720Y0379766D01*
X0194141Y0379898D01*
X0194559Y0380040D01*
X0194973Y0380192D01*
X0195384Y0380355D01*
X0195790Y0380527D01*
X0196192Y0380709D01*
X0196589Y0380900D01*
X0196982Y0381102D01*
X0197370Y0381312D01*
X0197752Y0381532D01*
X0198129Y0381762D01*
X0198500Y0382000D01*
X0208500Y0385000D02*
X0235000Y0385000D01*
X0235000Y0229500D01*
X0232000Y0219500D02*
X0231762Y0219129D01*
X0231532Y0218752D01*
X0231312Y0218370D01*
X0231102Y0217982D01*
X0230900Y0217589D01*
X0230709Y0217192D01*
X0230527Y0216790D01*
X0230355Y0216384D01*
X0230192Y0215973D01*
X0230040Y0215559D01*
X0229898Y0215141D01*
X0229766Y0214720D01*
X0229645Y0214296D01*
X0229533Y0213869D01*
X0229432Y0213440D01*
X0229342Y0213008D01*
X0229262Y0212574D01*
X0229193Y0212138D01*
X0229134Y0211701D01*
X0229086Y0211262D01*
X0229048Y0210823D01*
X0229021Y0210382D01*
X0229005Y0209941D01*
X0229000Y0209500D01*
X0229005Y0209059D01*
X0229021Y0208618D01*
X0229048Y0208177D01*
X0229086Y0207738D01*
X0229134Y0207299D01*
X0229193Y0206862D01*
X0229262Y0206426D01*
X0229342Y0205992D01*
X0229432Y0205560D01*
X0229533Y0205131D01*
X0229645Y0204704D01*
X0229766Y0204280D01*
X0229898Y0203859D01*
X0230040Y0203441D01*
X0230192Y0203027D01*
X0230355Y0202616D01*
X0230527Y0202210D01*
X0230709Y0201808D01*
X0230900Y0201411D01*
X0231102Y0201018D01*
X0231312Y0200630D01*
X0231532Y0200248D01*
X0231762Y0199871D01*
X0232000Y0199500D01*
X0235000Y0189500D02*
X0235000Y0046500D01*
X0234900Y0010000D02*
X0235000Y0117500D01*
X0235000Y0189500D02*
X0234995Y0189941D01*
X0234979Y0190382D01*
X0234952Y0190823D01*
X0234914Y0191262D01*
X0234866Y0191701D01*
X0234807Y0192138D01*
X0234738Y0192574D01*
X0234658Y0193008D01*
X0234568Y0193440D01*
X0234467Y0193869D01*
X0234355Y0194296D01*
X0234234Y0194720D01*
X0234102Y0195141D01*
X0233960Y0195559D01*
X0233808Y0195973D01*
X0233645Y0196384D01*
X0233473Y0196790D01*
X0233291Y0197192D01*
X0233100Y0197589D01*
X0232898Y0197982D01*
X0232688Y0198370D01*
X0232468Y0198752D01*
X0232238Y0199129D01*
X0232000Y0199500D01*
X0232000Y0219500D02*
X0232238Y0219871D01*
X0232468Y0220248D01*
X0232688Y0220631D01*
X0232898Y0221018D01*
X0233100Y0221411D01*
X0233291Y0221808D01*
X0233473Y0222210D01*
X0233645Y0222616D01*
X0233808Y0223027D01*
X0233960Y0223441D01*
X0234102Y0223859D01*
X0234234Y0224280D01*
X0234355Y0224704D01*
X0234467Y0225131D01*
X0234568Y0225560D01*
X0234658Y0225992D01*
X0234738Y0226426D01*
X0234807Y0226862D01*
X0234866Y0227299D01*
X0234914Y0227738D01*
X0234952Y0228177D01*
X0234979Y0228618D01*
X0234995Y0229059D01*
X0235000Y0229500D01*
X0198500Y0382000D02*
X0198871Y0382238D01*
X0199248Y0382468D01*
X0199630Y0382688D01*
X0200018Y0382898D01*
X0200411Y0383100D01*
X0200808Y0383291D01*
X0201210Y0383473D01*
X0201616Y0383645D01*
X0202027Y0383808D01*
X0202441Y0383960D01*
X0202859Y0384102D01*
X0203280Y0384234D01*
X0203704Y0384355D01*
X0204131Y0384467D01*
X0204560Y0384568D01*
X0204992Y0384658D01*
X0205426Y0384738D01*
X0205862Y0384807D01*
X0206299Y0384866D01*
X0206738Y0384914D01*
X0207177Y0384952D01*
X0207618Y0384979D01*
X0208059Y0384995D01*
X0208500Y0385000D01*
X0005000Y0229500D02*
X0005005Y0229059D01*
X0005021Y0228618D01*
X0005048Y0228177D01*
X0005086Y0227738D01*
X0005134Y0227299D01*
X0005193Y0226862D01*
X0005262Y0226426D01*
X0005342Y0225992D01*
X0005432Y0225560D01*
X0005533Y0225131D01*
X0005645Y0224704D01*
X0005766Y0224280D01*
X0005898Y0223859D01*
X0006040Y0223441D01*
X0006192Y0223027D01*
X0006355Y0222616D01*
X0006527Y0222210D01*
X0006709Y0221808D01*
X0006900Y0221411D01*
X0007102Y0221018D01*
X0007312Y0220631D01*
X0007532Y0220248D01*
X0007762Y0219871D01*
X0008000Y0219500D01*
X0008000Y0199500D02*
X0007762Y0199129D01*
X0007532Y0198752D01*
X0007312Y0198370D01*
X0007102Y0197982D01*
X0006900Y0197589D01*
X0006709Y0197192D01*
X0006527Y0196790D01*
X0006355Y0196384D01*
X0006192Y0195973D01*
X0006040Y0195559D01*
X0005898Y0195141D01*
X0005766Y0194720D01*
X0005645Y0194296D01*
X0005533Y0193869D01*
X0005432Y0193440D01*
X0005342Y0193008D01*
X0005262Y0192574D01*
X0005193Y0192138D01*
X0005134Y0191701D01*
X0005086Y0191262D01*
X0005048Y0190823D01*
X0005021Y0190382D01*
X0005005Y0189941D01*
X0005000Y0189500D01*
X0005000Y0010000D02*
X0234900Y0010000D01*
D11*
X0218750Y0020000D02*
X0218752Y0020158D01*
X0218758Y0020315D01*
X0218768Y0020473D01*
X0218782Y0020630D01*
X0218800Y0020786D01*
X0218821Y0020943D01*
X0218847Y0021098D01*
X0218877Y0021253D01*
X0218910Y0021407D01*
X0218948Y0021560D01*
X0218989Y0021713D01*
X0219034Y0021864D01*
X0219083Y0022014D01*
X0219136Y0022162D01*
X0219192Y0022310D01*
X0219253Y0022455D01*
X0219316Y0022600D01*
X0219384Y0022742D01*
X0219455Y0022883D01*
X0219529Y0023022D01*
X0219607Y0023159D01*
X0219689Y0023294D01*
X0219773Y0023427D01*
X0219862Y0023558D01*
X0219953Y0023686D01*
X0220048Y0023813D01*
X0220145Y0023936D01*
X0220246Y0024058D01*
X0220350Y0024176D01*
X0220457Y0024292D01*
X0220567Y0024405D01*
X0220679Y0024516D01*
X0220795Y0024623D01*
X0220913Y0024728D01*
X0221033Y0024830D01*
X0221156Y0024928D01*
X0221282Y0025024D01*
X0221410Y0025116D01*
X0221540Y0025205D01*
X0221672Y0025291D01*
X0221807Y0025373D01*
X0221944Y0025452D01*
X0222082Y0025527D01*
X0222222Y0025599D01*
X0222365Y0025667D01*
X0222508Y0025732D01*
X0222654Y0025793D01*
X0222801Y0025850D01*
X0222949Y0025904D01*
X0223099Y0025954D01*
X0223249Y0026000D01*
X0223401Y0026042D01*
X0223554Y0026081D01*
X0223708Y0026115D01*
X0223863Y0026146D01*
X0224018Y0026172D01*
X0224174Y0026195D01*
X0224331Y0026214D01*
X0224488Y0026229D01*
X0224645Y0026240D01*
X0224803Y0026247D01*
X0224961Y0026250D01*
X0225118Y0026249D01*
X0225276Y0026244D01*
X0225433Y0026235D01*
X0225591Y0026222D01*
X0225747Y0026205D01*
X0225904Y0026184D01*
X0226059Y0026160D01*
X0226214Y0026131D01*
X0226369Y0026098D01*
X0226522Y0026062D01*
X0226675Y0026021D01*
X0226826Y0025977D01*
X0226976Y0025929D01*
X0227125Y0025878D01*
X0227273Y0025822D01*
X0227419Y0025763D01*
X0227564Y0025700D01*
X0227707Y0025633D01*
X0227848Y0025563D01*
X0227987Y0025490D01*
X0228125Y0025413D01*
X0228261Y0025332D01*
X0228394Y0025248D01*
X0228525Y0025161D01*
X0228654Y0025070D01*
X0228781Y0024976D01*
X0228906Y0024879D01*
X0229027Y0024779D01*
X0229147Y0024676D01*
X0229263Y0024570D01*
X0229377Y0024461D01*
X0229489Y0024349D01*
X0229597Y0024235D01*
X0229702Y0024117D01*
X0229805Y0023997D01*
X0229904Y0023875D01*
X0230000Y0023750D01*
X0230093Y0023622D01*
X0230183Y0023493D01*
X0230269Y0023361D01*
X0230353Y0023227D01*
X0230432Y0023091D01*
X0230509Y0022953D01*
X0230581Y0022813D01*
X0230650Y0022671D01*
X0230716Y0022528D01*
X0230778Y0022383D01*
X0230836Y0022236D01*
X0230891Y0022088D01*
X0230942Y0021939D01*
X0230989Y0021788D01*
X0231032Y0021637D01*
X0231071Y0021484D01*
X0231107Y0021330D01*
X0231138Y0021176D01*
X0231166Y0021021D01*
X0231190Y0020865D01*
X0231210Y0020708D01*
X0231226Y0020551D01*
X0231238Y0020394D01*
X0231246Y0020237D01*
X0231250Y0020079D01*
X0231250Y0019921D01*
X0231246Y0019763D01*
X0231238Y0019606D01*
X0231226Y0019449D01*
X0231210Y0019292D01*
X0231190Y0019135D01*
X0231166Y0018979D01*
X0231138Y0018824D01*
X0231107Y0018670D01*
X0231071Y0018516D01*
X0231032Y0018363D01*
X0230989Y0018212D01*
X0230942Y0018061D01*
X0230891Y0017912D01*
X0230836Y0017764D01*
X0230778Y0017617D01*
X0230716Y0017472D01*
X0230650Y0017329D01*
X0230581Y0017187D01*
X0230509Y0017047D01*
X0230432Y0016909D01*
X0230353Y0016773D01*
X0230269Y0016639D01*
X0230183Y0016507D01*
X0230093Y0016378D01*
X0230000Y0016250D01*
X0229904Y0016125D01*
X0229805Y0016003D01*
X0229702Y0015883D01*
X0229597Y0015765D01*
X0229489Y0015651D01*
X0229377Y0015539D01*
X0229263Y0015430D01*
X0229147Y0015324D01*
X0229027Y0015221D01*
X0228906Y0015121D01*
X0228781Y0015024D01*
X0228654Y0014930D01*
X0228525Y0014839D01*
X0228394Y0014752D01*
X0228261Y0014668D01*
X0228125Y0014587D01*
X0227987Y0014510D01*
X0227848Y0014437D01*
X0227707Y0014367D01*
X0227564Y0014300D01*
X0227419Y0014237D01*
X0227273Y0014178D01*
X0227125Y0014122D01*
X0226976Y0014071D01*
X0226826Y0014023D01*
X0226675Y0013979D01*
X0226522Y0013938D01*
X0226369Y0013902D01*
X0226214Y0013869D01*
X0226059Y0013840D01*
X0225904Y0013816D01*
X0225747Y0013795D01*
X0225591Y0013778D01*
X0225433Y0013765D01*
X0225276Y0013756D01*
X0225118Y0013751D01*
X0224961Y0013750D01*
X0224803Y0013753D01*
X0224645Y0013760D01*
X0224488Y0013771D01*
X0224331Y0013786D01*
X0224174Y0013805D01*
X0224018Y0013828D01*
X0223863Y0013854D01*
X0223708Y0013885D01*
X0223554Y0013919D01*
X0223401Y0013958D01*
X0223249Y0014000D01*
X0223099Y0014046D01*
X0222949Y0014096D01*
X0222801Y0014150D01*
X0222654Y0014207D01*
X0222508Y0014268D01*
X0222365Y0014333D01*
X0222222Y0014401D01*
X0222082Y0014473D01*
X0221944Y0014548D01*
X0221807Y0014627D01*
X0221672Y0014709D01*
X0221540Y0014795D01*
X0221410Y0014884D01*
X0221282Y0014976D01*
X0221156Y0015072D01*
X0221033Y0015170D01*
X0220913Y0015272D01*
X0220795Y0015377D01*
X0220679Y0015484D01*
X0220567Y0015595D01*
X0220457Y0015708D01*
X0220350Y0015824D01*
X0220246Y0015942D01*
X0220145Y0016064D01*
X0220048Y0016187D01*
X0219953Y0016314D01*
X0219862Y0016442D01*
X0219773Y0016573D01*
X0219689Y0016706D01*
X0219607Y0016841D01*
X0219529Y0016978D01*
X0219455Y0017117D01*
X0219384Y0017258D01*
X0219316Y0017400D01*
X0219253Y0017545D01*
X0219192Y0017690D01*
X0219136Y0017838D01*
X0219083Y0017986D01*
X0219034Y0018136D01*
X0218989Y0018287D01*
X0218948Y0018440D01*
X0218910Y0018593D01*
X0218877Y0018747D01*
X0218847Y0018902D01*
X0218821Y0019057D01*
X0218800Y0019214D01*
X0218782Y0019370D01*
X0218768Y0019527D01*
X0218758Y0019685D01*
X0218752Y0019842D01*
X0218750Y0020000D01*
X0224130Y0204972D02*
X0224132Y0205058D01*
X0224138Y0205145D01*
X0224148Y0205230D01*
X0224162Y0205316D01*
X0224180Y0205400D01*
X0224201Y0205484D01*
X0224227Y0205566D01*
X0224256Y0205648D01*
X0224289Y0205727D01*
X0224326Y0205806D01*
X0224366Y0205882D01*
X0224410Y0205956D01*
X0224457Y0206029D01*
X0224508Y0206099D01*
X0224561Y0206167D01*
X0224618Y0206232D01*
X0224678Y0206294D01*
X0224740Y0206354D01*
X0224805Y0206411D01*
X0224873Y0206464D01*
X0224943Y0206515D01*
X0225016Y0206562D01*
X0225090Y0206606D01*
X0225166Y0206646D01*
X0225245Y0206683D01*
X0225324Y0206716D01*
X0225406Y0206745D01*
X0225488Y0206771D01*
X0225572Y0206792D01*
X0225656Y0206810D01*
X0225742Y0206824D01*
X0225827Y0206834D01*
X0225914Y0206840D01*
X0226000Y0206842D01*
X0226086Y0206840D01*
X0226173Y0206834D01*
X0226258Y0206824D01*
X0226344Y0206810D01*
X0226428Y0206792D01*
X0226512Y0206771D01*
X0226594Y0206745D01*
X0226676Y0206716D01*
X0226755Y0206683D01*
X0226834Y0206646D01*
X0226910Y0206606D01*
X0226984Y0206562D01*
X0227057Y0206515D01*
X0227127Y0206464D01*
X0227195Y0206411D01*
X0227260Y0206354D01*
X0227322Y0206294D01*
X0227382Y0206232D01*
X0227439Y0206167D01*
X0227492Y0206099D01*
X0227543Y0206029D01*
X0227590Y0205956D01*
X0227634Y0205882D01*
X0227674Y0205806D01*
X0227711Y0205727D01*
X0227744Y0205648D01*
X0227773Y0205566D01*
X0227799Y0205484D01*
X0227820Y0205400D01*
X0227838Y0205316D01*
X0227852Y0205230D01*
X0227862Y0205145D01*
X0227868Y0205058D01*
X0227870Y0204972D01*
X0227868Y0204886D01*
X0227862Y0204799D01*
X0227852Y0204714D01*
X0227838Y0204628D01*
X0227820Y0204544D01*
X0227799Y0204460D01*
X0227773Y0204378D01*
X0227744Y0204296D01*
X0227711Y0204217D01*
X0227674Y0204138D01*
X0227634Y0204062D01*
X0227590Y0203988D01*
X0227543Y0203915D01*
X0227492Y0203845D01*
X0227439Y0203777D01*
X0227382Y0203712D01*
X0227322Y0203650D01*
X0227260Y0203590D01*
X0227195Y0203533D01*
X0227127Y0203480D01*
X0227057Y0203429D01*
X0226984Y0203382D01*
X0226910Y0203338D01*
X0226834Y0203298D01*
X0226755Y0203261D01*
X0226676Y0203228D01*
X0226594Y0203199D01*
X0226512Y0203173D01*
X0226428Y0203152D01*
X0226344Y0203134D01*
X0226258Y0203120D01*
X0226173Y0203110D01*
X0226086Y0203104D01*
X0226000Y0203102D01*
X0225914Y0203104D01*
X0225827Y0203110D01*
X0225742Y0203120D01*
X0225656Y0203134D01*
X0225572Y0203152D01*
X0225488Y0203173D01*
X0225406Y0203199D01*
X0225324Y0203228D01*
X0225245Y0203261D01*
X0225166Y0203298D01*
X0225090Y0203338D01*
X0225016Y0203382D01*
X0224943Y0203429D01*
X0224873Y0203480D01*
X0224805Y0203533D01*
X0224740Y0203590D01*
X0224678Y0203650D01*
X0224618Y0203712D01*
X0224561Y0203777D01*
X0224508Y0203845D01*
X0224457Y0203915D01*
X0224410Y0203988D01*
X0224366Y0204062D01*
X0224326Y0204138D01*
X0224289Y0204217D01*
X0224256Y0204296D01*
X0224227Y0204378D01*
X0224201Y0204460D01*
X0224180Y0204544D01*
X0224162Y0204628D01*
X0224148Y0204714D01*
X0224138Y0204799D01*
X0224132Y0204886D01*
X0224130Y0204972D01*
X0224130Y0214028D02*
X0224132Y0214114D01*
X0224138Y0214201D01*
X0224148Y0214286D01*
X0224162Y0214372D01*
X0224180Y0214456D01*
X0224201Y0214540D01*
X0224227Y0214622D01*
X0224256Y0214704D01*
X0224289Y0214783D01*
X0224326Y0214862D01*
X0224366Y0214938D01*
X0224410Y0215012D01*
X0224457Y0215085D01*
X0224508Y0215155D01*
X0224561Y0215223D01*
X0224618Y0215288D01*
X0224678Y0215350D01*
X0224740Y0215410D01*
X0224805Y0215467D01*
X0224873Y0215520D01*
X0224943Y0215571D01*
X0225016Y0215618D01*
X0225090Y0215662D01*
X0225166Y0215702D01*
X0225245Y0215739D01*
X0225324Y0215772D01*
X0225406Y0215801D01*
X0225488Y0215827D01*
X0225572Y0215848D01*
X0225656Y0215866D01*
X0225742Y0215880D01*
X0225827Y0215890D01*
X0225914Y0215896D01*
X0226000Y0215898D01*
X0226086Y0215896D01*
X0226173Y0215890D01*
X0226258Y0215880D01*
X0226344Y0215866D01*
X0226428Y0215848D01*
X0226512Y0215827D01*
X0226594Y0215801D01*
X0226676Y0215772D01*
X0226755Y0215739D01*
X0226834Y0215702D01*
X0226910Y0215662D01*
X0226984Y0215618D01*
X0227057Y0215571D01*
X0227127Y0215520D01*
X0227195Y0215467D01*
X0227260Y0215410D01*
X0227322Y0215350D01*
X0227382Y0215288D01*
X0227439Y0215223D01*
X0227492Y0215155D01*
X0227543Y0215085D01*
X0227590Y0215012D01*
X0227634Y0214938D01*
X0227674Y0214862D01*
X0227711Y0214783D01*
X0227744Y0214704D01*
X0227773Y0214622D01*
X0227799Y0214540D01*
X0227820Y0214456D01*
X0227838Y0214372D01*
X0227852Y0214286D01*
X0227862Y0214201D01*
X0227868Y0214114D01*
X0227870Y0214028D01*
X0227868Y0213942D01*
X0227862Y0213855D01*
X0227852Y0213770D01*
X0227838Y0213684D01*
X0227820Y0213600D01*
X0227799Y0213516D01*
X0227773Y0213434D01*
X0227744Y0213352D01*
X0227711Y0213273D01*
X0227674Y0213194D01*
X0227634Y0213118D01*
X0227590Y0213044D01*
X0227543Y0212971D01*
X0227492Y0212901D01*
X0227439Y0212833D01*
X0227382Y0212768D01*
X0227322Y0212706D01*
X0227260Y0212646D01*
X0227195Y0212589D01*
X0227127Y0212536D01*
X0227057Y0212485D01*
X0226984Y0212438D01*
X0226910Y0212394D01*
X0226834Y0212354D01*
X0226755Y0212317D01*
X0226676Y0212284D01*
X0226594Y0212255D01*
X0226512Y0212229D01*
X0226428Y0212208D01*
X0226344Y0212190D01*
X0226258Y0212176D01*
X0226173Y0212166D01*
X0226086Y0212160D01*
X0226000Y0212158D01*
X0225914Y0212160D01*
X0225827Y0212166D01*
X0225742Y0212176D01*
X0225656Y0212190D01*
X0225572Y0212208D01*
X0225488Y0212229D01*
X0225406Y0212255D01*
X0225324Y0212284D01*
X0225245Y0212317D01*
X0225166Y0212354D01*
X0225090Y0212394D01*
X0225016Y0212438D01*
X0224943Y0212485D01*
X0224873Y0212536D01*
X0224805Y0212589D01*
X0224740Y0212646D01*
X0224678Y0212706D01*
X0224618Y0212768D01*
X0224561Y0212833D01*
X0224508Y0212901D01*
X0224457Y0212971D01*
X0224410Y0213044D01*
X0224366Y0213118D01*
X0224326Y0213194D01*
X0224289Y0213273D01*
X0224256Y0213352D01*
X0224227Y0213434D01*
X0224201Y0213516D01*
X0224180Y0213600D01*
X0224162Y0213684D01*
X0224148Y0213770D01*
X0224138Y0213855D01*
X0224132Y0213942D01*
X0224130Y0214028D01*
X0218750Y0375000D02*
X0218752Y0375158D01*
X0218758Y0375315D01*
X0218768Y0375473D01*
X0218782Y0375630D01*
X0218800Y0375786D01*
X0218821Y0375943D01*
X0218847Y0376098D01*
X0218877Y0376253D01*
X0218910Y0376407D01*
X0218948Y0376560D01*
X0218989Y0376713D01*
X0219034Y0376864D01*
X0219083Y0377014D01*
X0219136Y0377162D01*
X0219192Y0377310D01*
X0219253Y0377455D01*
X0219316Y0377600D01*
X0219384Y0377742D01*
X0219455Y0377883D01*
X0219529Y0378022D01*
X0219607Y0378159D01*
X0219689Y0378294D01*
X0219773Y0378427D01*
X0219862Y0378558D01*
X0219953Y0378686D01*
X0220048Y0378813D01*
X0220145Y0378936D01*
X0220246Y0379058D01*
X0220350Y0379176D01*
X0220457Y0379292D01*
X0220567Y0379405D01*
X0220679Y0379516D01*
X0220795Y0379623D01*
X0220913Y0379728D01*
X0221033Y0379830D01*
X0221156Y0379928D01*
X0221282Y0380024D01*
X0221410Y0380116D01*
X0221540Y0380205D01*
X0221672Y0380291D01*
X0221807Y0380373D01*
X0221944Y0380452D01*
X0222082Y0380527D01*
X0222222Y0380599D01*
X0222365Y0380667D01*
X0222508Y0380732D01*
X0222654Y0380793D01*
X0222801Y0380850D01*
X0222949Y0380904D01*
X0223099Y0380954D01*
X0223249Y0381000D01*
X0223401Y0381042D01*
X0223554Y0381081D01*
X0223708Y0381115D01*
X0223863Y0381146D01*
X0224018Y0381172D01*
X0224174Y0381195D01*
X0224331Y0381214D01*
X0224488Y0381229D01*
X0224645Y0381240D01*
X0224803Y0381247D01*
X0224961Y0381250D01*
X0225118Y0381249D01*
X0225276Y0381244D01*
X0225433Y0381235D01*
X0225591Y0381222D01*
X0225747Y0381205D01*
X0225904Y0381184D01*
X0226059Y0381160D01*
X0226214Y0381131D01*
X0226369Y0381098D01*
X0226522Y0381062D01*
X0226675Y0381021D01*
X0226826Y0380977D01*
X0226976Y0380929D01*
X0227125Y0380878D01*
X0227273Y0380822D01*
X0227419Y0380763D01*
X0227564Y0380700D01*
X0227707Y0380633D01*
X0227848Y0380563D01*
X0227987Y0380490D01*
X0228125Y0380413D01*
X0228261Y0380332D01*
X0228394Y0380248D01*
X0228525Y0380161D01*
X0228654Y0380070D01*
X0228781Y0379976D01*
X0228906Y0379879D01*
X0229027Y0379779D01*
X0229147Y0379676D01*
X0229263Y0379570D01*
X0229377Y0379461D01*
X0229489Y0379349D01*
X0229597Y0379235D01*
X0229702Y0379117D01*
X0229805Y0378997D01*
X0229904Y0378875D01*
X0230000Y0378750D01*
X0230093Y0378622D01*
X0230183Y0378493D01*
X0230269Y0378361D01*
X0230353Y0378227D01*
X0230432Y0378091D01*
X0230509Y0377953D01*
X0230581Y0377813D01*
X0230650Y0377671D01*
X0230716Y0377528D01*
X0230778Y0377383D01*
X0230836Y0377236D01*
X0230891Y0377088D01*
X0230942Y0376939D01*
X0230989Y0376788D01*
X0231032Y0376637D01*
X0231071Y0376484D01*
X0231107Y0376330D01*
X0231138Y0376176D01*
X0231166Y0376021D01*
X0231190Y0375865D01*
X0231210Y0375708D01*
X0231226Y0375551D01*
X0231238Y0375394D01*
X0231246Y0375237D01*
X0231250Y0375079D01*
X0231250Y0374921D01*
X0231246Y0374763D01*
X0231238Y0374606D01*
X0231226Y0374449D01*
X0231210Y0374292D01*
X0231190Y0374135D01*
X0231166Y0373979D01*
X0231138Y0373824D01*
X0231107Y0373670D01*
X0231071Y0373516D01*
X0231032Y0373363D01*
X0230989Y0373212D01*
X0230942Y0373061D01*
X0230891Y0372912D01*
X0230836Y0372764D01*
X0230778Y0372617D01*
X0230716Y0372472D01*
X0230650Y0372329D01*
X0230581Y0372187D01*
X0230509Y0372047D01*
X0230432Y0371909D01*
X0230353Y0371773D01*
X0230269Y0371639D01*
X0230183Y0371507D01*
X0230093Y0371378D01*
X0230000Y0371250D01*
X0229904Y0371125D01*
X0229805Y0371003D01*
X0229702Y0370883D01*
X0229597Y0370765D01*
X0229489Y0370651D01*
X0229377Y0370539D01*
X0229263Y0370430D01*
X0229147Y0370324D01*
X0229027Y0370221D01*
X0228906Y0370121D01*
X0228781Y0370024D01*
X0228654Y0369930D01*
X0228525Y0369839D01*
X0228394Y0369752D01*
X0228261Y0369668D01*
X0228125Y0369587D01*
X0227987Y0369510D01*
X0227848Y0369437D01*
X0227707Y0369367D01*
X0227564Y0369300D01*
X0227419Y0369237D01*
X0227273Y0369178D01*
X0227125Y0369122D01*
X0226976Y0369071D01*
X0226826Y0369023D01*
X0226675Y0368979D01*
X0226522Y0368938D01*
X0226369Y0368902D01*
X0226214Y0368869D01*
X0226059Y0368840D01*
X0225904Y0368816D01*
X0225747Y0368795D01*
X0225591Y0368778D01*
X0225433Y0368765D01*
X0225276Y0368756D01*
X0225118Y0368751D01*
X0224961Y0368750D01*
X0224803Y0368753D01*
X0224645Y0368760D01*
X0224488Y0368771D01*
X0224331Y0368786D01*
X0224174Y0368805D01*
X0224018Y0368828D01*
X0223863Y0368854D01*
X0223708Y0368885D01*
X0223554Y0368919D01*
X0223401Y0368958D01*
X0223249Y0369000D01*
X0223099Y0369046D01*
X0222949Y0369096D01*
X0222801Y0369150D01*
X0222654Y0369207D01*
X0222508Y0369268D01*
X0222365Y0369333D01*
X0222222Y0369401D01*
X0222082Y0369473D01*
X0221944Y0369548D01*
X0221807Y0369627D01*
X0221672Y0369709D01*
X0221540Y0369795D01*
X0221410Y0369884D01*
X0221282Y0369976D01*
X0221156Y0370072D01*
X0221033Y0370170D01*
X0220913Y0370272D01*
X0220795Y0370377D01*
X0220679Y0370484D01*
X0220567Y0370595D01*
X0220457Y0370708D01*
X0220350Y0370824D01*
X0220246Y0370942D01*
X0220145Y0371064D01*
X0220048Y0371187D01*
X0219953Y0371314D01*
X0219862Y0371442D01*
X0219773Y0371573D01*
X0219689Y0371706D01*
X0219607Y0371841D01*
X0219529Y0371978D01*
X0219455Y0372117D01*
X0219384Y0372258D01*
X0219316Y0372400D01*
X0219253Y0372545D01*
X0219192Y0372690D01*
X0219136Y0372838D01*
X0219083Y0372986D01*
X0219034Y0373136D01*
X0218989Y0373287D01*
X0218948Y0373440D01*
X0218910Y0373593D01*
X0218877Y0373747D01*
X0218847Y0373902D01*
X0218821Y0374057D01*
X0218800Y0374214D01*
X0218782Y0374370D01*
X0218768Y0374527D01*
X0218758Y0374685D01*
X0218752Y0374842D01*
X0218750Y0375000D01*
X0191158Y0376000D02*
X0191160Y0376086D01*
X0191166Y0376173D01*
X0191176Y0376258D01*
X0191190Y0376344D01*
X0191208Y0376428D01*
X0191229Y0376512D01*
X0191255Y0376594D01*
X0191284Y0376676D01*
X0191317Y0376755D01*
X0191354Y0376834D01*
X0191394Y0376910D01*
X0191438Y0376984D01*
X0191485Y0377057D01*
X0191536Y0377127D01*
X0191589Y0377195D01*
X0191646Y0377260D01*
X0191706Y0377322D01*
X0191768Y0377382D01*
X0191833Y0377439D01*
X0191901Y0377492D01*
X0191971Y0377543D01*
X0192044Y0377590D01*
X0192118Y0377634D01*
X0192194Y0377674D01*
X0192273Y0377711D01*
X0192352Y0377744D01*
X0192434Y0377773D01*
X0192516Y0377799D01*
X0192600Y0377820D01*
X0192684Y0377838D01*
X0192770Y0377852D01*
X0192855Y0377862D01*
X0192942Y0377868D01*
X0193028Y0377870D01*
X0193114Y0377868D01*
X0193201Y0377862D01*
X0193286Y0377852D01*
X0193372Y0377838D01*
X0193456Y0377820D01*
X0193540Y0377799D01*
X0193622Y0377773D01*
X0193704Y0377744D01*
X0193783Y0377711D01*
X0193862Y0377674D01*
X0193938Y0377634D01*
X0194012Y0377590D01*
X0194085Y0377543D01*
X0194155Y0377492D01*
X0194223Y0377439D01*
X0194288Y0377382D01*
X0194350Y0377322D01*
X0194410Y0377260D01*
X0194467Y0377195D01*
X0194520Y0377127D01*
X0194571Y0377057D01*
X0194618Y0376984D01*
X0194662Y0376910D01*
X0194702Y0376834D01*
X0194739Y0376755D01*
X0194772Y0376676D01*
X0194801Y0376594D01*
X0194827Y0376512D01*
X0194848Y0376428D01*
X0194866Y0376344D01*
X0194880Y0376258D01*
X0194890Y0376173D01*
X0194896Y0376086D01*
X0194898Y0376000D01*
X0194896Y0375914D01*
X0194890Y0375827D01*
X0194880Y0375742D01*
X0194866Y0375656D01*
X0194848Y0375572D01*
X0194827Y0375488D01*
X0194801Y0375406D01*
X0194772Y0375324D01*
X0194739Y0375245D01*
X0194702Y0375166D01*
X0194662Y0375090D01*
X0194618Y0375016D01*
X0194571Y0374943D01*
X0194520Y0374873D01*
X0194467Y0374805D01*
X0194410Y0374740D01*
X0194350Y0374678D01*
X0194288Y0374618D01*
X0194223Y0374561D01*
X0194155Y0374508D01*
X0194085Y0374457D01*
X0194012Y0374410D01*
X0193938Y0374366D01*
X0193862Y0374326D01*
X0193783Y0374289D01*
X0193704Y0374256D01*
X0193622Y0374227D01*
X0193540Y0374201D01*
X0193456Y0374180D01*
X0193372Y0374162D01*
X0193286Y0374148D01*
X0193201Y0374138D01*
X0193114Y0374132D01*
X0193028Y0374130D01*
X0192942Y0374132D01*
X0192855Y0374138D01*
X0192770Y0374148D01*
X0192684Y0374162D01*
X0192600Y0374180D01*
X0192516Y0374201D01*
X0192434Y0374227D01*
X0192352Y0374256D01*
X0192273Y0374289D01*
X0192194Y0374326D01*
X0192118Y0374366D01*
X0192044Y0374410D01*
X0191971Y0374457D01*
X0191901Y0374508D01*
X0191833Y0374561D01*
X0191768Y0374618D01*
X0191706Y0374678D01*
X0191646Y0374740D01*
X0191589Y0374805D01*
X0191536Y0374873D01*
X0191485Y0374943D01*
X0191438Y0375016D01*
X0191394Y0375090D01*
X0191354Y0375166D01*
X0191317Y0375245D01*
X0191284Y0375324D01*
X0191255Y0375406D01*
X0191229Y0375488D01*
X0191208Y0375572D01*
X0191190Y0375656D01*
X0191176Y0375742D01*
X0191166Y0375827D01*
X0191160Y0375914D01*
X0191158Y0376000D01*
X0182102Y0376000D02*
X0182104Y0376086D01*
X0182110Y0376173D01*
X0182120Y0376258D01*
X0182134Y0376344D01*
X0182152Y0376428D01*
X0182173Y0376512D01*
X0182199Y0376594D01*
X0182228Y0376676D01*
X0182261Y0376755D01*
X0182298Y0376834D01*
X0182338Y0376910D01*
X0182382Y0376984D01*
X0182429Y0377057D01*
X0182480Y0377127D01*
X0182533Y0377195D01*
X0182590Y0377260D01*
X0182650Y0377322D01*
X0182712Y0377382D01*
X0182777Y0377439D01*
X0182845Y0377492D01*
X0182915Y0377543D01*
X0182988Y0377590D01*
X0183062Y0377634D01*
X0183138Y0377674D01*
X0183217Y0377711D01*
X0183296Y0377744D01*
X0183378Y0377773D01*
X0183460Y0377799D01*
X0183544Y0377820D01*
X0183628Y0377838D01*
X0183714Y0377852D01*
X0183799Y0377862D01*
X0183886Y0377868D01*
X0183972Y0377870D01*
X0184058Y0377868D01*
X0184145Y0377862D01*
X0184230Y0377852D01*
X0184316Y0377838D01*
X0184400Y0377820D01*
X0184484Y0377799D01*
X0184566Y0377773D01*
X0184648Y0377744D01*
X0184727Y0377711D01*
X0184806Y0377674D01*
X0184882Y0377634D01*
X0184956Y0377590D01*
X0185029Y0377543D01*
X0185099Y0377492D01*
X0185167Y0377439D01*
X0185232Y0377382D01*
X0185294Y0377322D01*
X0185354Y0377260D01*
X0185411Y0377195D01*
X0185464Y0377127D01*
X0185515Y0377057D01*
X0185562Y0376984D01*
X0185606Y0376910D01*
X0185646Y0376834D01*
X0185683Y0376755D01*
X0185716Y0376676D01*
X0185745Y0376594D01*
X0185771Y0376512D01*
X0185792Y0376428D01*
X0185810Y0376344D01*
X0185824Y0376258D01*
X0185834Y0376173D01*
X0185840Y0376086D01*
X0185842Y0376000D01*
X0185840Y0375914D01*
X0185834Y0375827D01*
X0185824Y0375742D01*
X0185810Y0375656D01*
X0185792Y0375572D01*
X0185771Y0375488D01*
X0185745Y0375406D01*
X0185716Y0375324D01*
X0185683Y0375245D01*
X0185646Y0375166D01*
X0185606Y0375090D01*
X0185562Y0375016D01*
X0185515Y0374943D01*
X0185464Y0374873D01*
X0185411Y0374805D01*
X0185354Y0374740D01*
X0185294Y0374678D01*
X0185232Y0374618D01*
X0185167Y0374561D01*
X0185099Y0374508D01*
X0185029Y0374457D01*
X0184956Y0374410D01*
X0184882Y0374366D01*
X0184806Y0374326D01*
X0184727Y0374289D01*
X0184648Y0374256D01*
X0184566Y0374227D01*
X0184484Y0374201D01*
X0184400Y0374180D01*
X0184316Y0374162D01*
X0184230Y0374148D01*
X0184145Y0374138D01*
X0184058Y0374132D01*
X0183972Y0374130D01*
X0183886Y0374132D01*
X0183799Y0374138D01*
X0183714Y0374148D01*
X0183628Y0374162D01*
X0183544Y0374180D01*
X0183460Y0374201D01*
X0183378Y0374227D01*
X0183296Y0374256D01*
X0183217Y0374289D01*
X0183138Y0374326D01*
X0183062Y0374366D01*
X0182988Y0374410D01*
X0182915Y0374457D01*
X0182845Y0374508D01*
X0182777Y0374561D01*
X0182712Y0374618D01*
X0182650Y0374678D01*
X0182590Y0374740D01*
X0182533Y0374805D01*
X0182480Y0374873D01*
X0182429Y0374943D01*
X0182382Y0375016D01*
X0182338Y0375090D01*
X0182298Y0375166D01*
X0182261Y0375245D01*
X0182228Y0375324D01*
X0182199Y0375406D01*
X0182173Y0375488D01*
X0182152Y0375572D01*
X0182134Y0375656D01*
X0182120Y0375742D01*
X0182110Y0375827D01*
X0182104Y0375914D01*
X0182102Y0376000D01*
X0008750Y0375000D02*
X0008752Y0375158D01*
X0008758Y0375315D01*
X0008768Y0375473D01*
X0008782Y0375630D01*
X0008800Y0375786D01*
X0008821Y0375943D01*
X0008847Y0376098D01*
X0008877Y0376253D01*
X0008910Y0376407D01*
X0008948Y0376560D01*
X0008989Y0376713D01*
X0009034Y0376864D01*
X0009083Y0377014D01*
X0009136Y0377162D01*
X0009192Y0377310D01*
X0009253Y0377455D01*
X0009316Y0377600D01*
X0009384Y0377742D01*
X0009455Y0377883D01*
X0009529Y0378022D01*
X0009607Y0378159D01*
X0009689Y0378294D01*
X0009773Y0378427D01*
X0009862Y0378558D01*
X0009953Y0378686D01*
X0010048Y0378813D01*
X0010145Y0378936D01*
X0010246Y0379058D01*
X0010350Y0379176D01*
X0010457Y0379292D01*
X0010567Y0379405D01*
X0010679Y0379516D01*
X0010795Y0379623D01*
X0010913Y0379728D01*
X0011033Y0379830D01*
X0011156Y0379928D01*
X0011282Y0380024D01*
X0011410Y0380116D01*
X0011540Y0380205D01*
X0011672Y0380291D01*
X0011807Y0380373D01*
X0011944Y0380452D01*
X0012082Y0380527D01*
X0012222Y0380599D01*
X0012365Y0380667D01*
X0012508Y0380732D01*
X0012654Y0380793D01*
X0012801Y0380850D01*
X0012949Y0380904D01*
X0013099Y0380954D01*
X0013249Y0381000D01*
X0013401Y0381042D01*
X0013554Y0381081D01*
X0013708Y0381115D01*
X0013863Y0381146D01*
X0014018Y0381172D01*
X0014174Y0381195D01*
X0014331Y0381214D01*
X0014488Y0381229D01*
X0014645Y0381240D01*
X0014803Y0381247D01*
X0014961Y0381250D01*
X0015118Y0381249D01*
X0015276Y0381244D01*
X0015433Y0381235D01*
X0015591Y0381222D01*
X0015747Y0381205D01*
X0015904Y0381184D01*
X0016059Y0381160D01*
X0016214Y0381131D01*
X0016369Y0381098D01*
X0016522Y0381062D01*
X0016675Y0381021D01*
X0016826Y0380977D01*
X0016976Y0380929D01*
X0017125Y0380878D01*
X0017273Y0380822D01*
X0017419Y0380763D01*
X0017564Y0380700D01*
X0017707Y0380633D01*
X0017848Y0380563D01*
X0017987Y0380490D01*
X0018125Y0380413D01*
X0018261Y0380332D01*
X0018394Y0380248D01*
X0018525Y0380161D01*
X0018654Y0380070D01*
X0018781Y0379976D01*
X0018906Y0379879D01*
X0019027Y0379779D01*
X0019147Y0379676D01*
X0019263Y0379570D01*
X0019377Y0379461D01*
X0019489Y0379349D01*
X0019597Y0379235D01*
X0019702Y0379117D01*
X0019805Y0378997D01*
X0019904Y0378875D01*
X0020000Y0378750D01*
X0020093Y0378622D01*
X0020183Y0378493D01*
X0020269Y0378361D01*
X0020353Y0378227D01*
X0020432Y0378091D01*
X0020509Y0377953D01*
X0020581Y0377813D01*
X0020650Y0377671D01*
X0020716Y0377528D01*
X0020778Y0377383D01*
X0020836Y0377236D01*
X0020891Y0377088D01*
X0020942Y0376939D01*
X0020989Y0376788D01*
X0021032Y0376637D01*
X0021071Y0376484D01*
X0021107Y0376330D01*
X0021138Y0376176D01*
X0021166Y0376021D01*
X0021190Y0375865D01*
X0021210Y0375708D01*
X0021226Y0375551D01*
X0021238Y0375394D01*
X0021246Y0375237D01*
X0021250Y0375079D01*
X0021250Y0374921D01*
X0021246Y0374763D01*
X0021238Y0374606D01*
X0021226Y0374449D01*
X0021210Y0374292D01*
X0021190Y0374135D01*
X0021166Y0373979D01*
X0021138Y0373824D01*
X0021107Y0373670D01*
X0021071Y0373516D01*
X0021032Y0373363D01*
X0020989Y0373212D01*
X0020942Y0373061D01*
X0020891Y0372912D01*
X0020836Y0372764D01*
X0020778Y0372617D01*
X0020716Y0372472D01*
X0020650Y0372329D01*
X0020581Y0372187D01*
X0020509Y0372047D01*
X0020432Y0371909D01*
X0020353Y0371773D01*
X0020269Y0371639D01*
X0020183Y0371507D01*
X0020093Y0371378D01*
X0020000Y0371250D01*
X0019904Y0371125D01*
X0019805Y0371003D01*
X0019702Y0370883D01*
X0019597Y0370765D01*
X0019489Y0370651D01*
X0019377Y0370539D01*
X0019263Y0370430D01*
X0019147Y0370324D01*
X0019027Y0370221D01*
X0018906Y0370121D01*
X0018781Y0370024D01*
X0018654Y0369930D01*
X0018525Y0369839D01*
X0018394Y0369752D01*
X0018261Y0369668D01*
X0018125Y0369587D01*
X0017987Y0369510D01*
X0017848Y0369437D01*
X0017707Y0369367D01*
X0017564Y0369300D01*
X0017419Y0369237D01*
X0017273Y0369178D01*
X0017125Y0369122D01*
X0016976Y0369071D01*
X0016826Y0369023D01*
X0016675Y0368979D01*
X0016522Y0368938D01*
X0016369Y0368902D01*
X0016214Y0368869D01*
X0016059Y0368840D01*
X0015904Y0368816D01*
X0015747Y0368795D01*
X0015591Y0368778D01*
X0015433Y0368765D01*
X0015276Y0368756D01*
X0015118Y0368751D01*
X0014961Y0368750D01*
X0014803Y0368753D01*
X0014645Y0368760D01*
X0014488Y0368771D01*
X0014331Y0368786D01*
X0014174Y0368805D01*
X0014018Y0368828D01*
X0013863Y0368854D01*
X0013708Y0368885D01*
X0013554Y0368919D01*
X0013401Y0368958D01*
X0013249Y0369000D01*
X0013099Y0369046D01*
X0012949Y0369096D01*
X0012801Y0369150D01*
X0012654Y0369207D01*
X0012508Y0369268D01*
X0012365Y0369333D01*
X0012222Y0369401D01*
X0012082Y0369473D01*
X0011944Y0369548D01*
X0011807Y0369627D01*
X0011672Y0369709D01*
X0011540Y0369795D01*
X0011410Y0369884D01*
X0011282Y0369976D01*
X0011156Y0370072D01*
X0011033Y0370170D01*
X0010913Y0370272D01*
X0010795Y0370377D01*
X0010679Y0370484D01*
X0010567Y0370595D01*
X0010457Y0370708D01*
X0010350Y0370824D01*
X0010246Y0370942D01*
X0010145Y0371064D01*
X0010048Y0371187D01*
X0009953Y0371314D01*
X0009862Y0371442D01*
X0009773Y0371573D01*
X0009689Y0371706D01*
X0009607Y0371841D01*
X0009529Y0371978D01*
X0009455Y0372117D01*
X0009384Y0372258D01*
X0009316Y0372400D01*
X0009253Y0372545D01*
X0009192Y0372690D01*
X0009136Y0372838D01*
X0009083Y0372986D01*
X0009034Y0373136D01*
X0008989Y0373287D01*
X0008948Y0373440D01*
X0008910Y0373593D01*
X0008877Y0373747D01*
X0008847Y0373902D01*
X0008821Y0374057D01*
X0008800Y0374214D01*
X0008782Y0374370D01*
X0008768Y0374527D01*
X0008758Y0374685D01*
X0008752Y0374842D01*
X0008750Y0375000D01*
X0012130Y0214028D02*
X0012132Y0214114D01*
X0012138Y0214201D01*
X0012148Y0214286D01*
X0012162Y0214372D01*
X0012180Y0214456D01*
X0012201Y0214540D01*
X0012227Y0214622D01*
X0012256Y0214704D01*
X0012289Y0214783D01*
X0012326Y0214862D01*
X0012366Y0214938D01*
X0012410Y0215012D01*
X0012457Y0215085D01*
X0012508Y0215155D01*
X0012561Y0215223D01*
X0012618Y0215288D01*
X0012678Y0215350D01*
X0012740Y0215410D01*
X0012805Y0215467D01*
X0012873Y0215520D01*
X0012943Y0215571D01*
X0013016Y0215618D01*
X0013090Y0215662D01*
X0013166Y0215702D01*
X0013245Y0215739D01*
X0013324Y0215772D01*
X0013406Y0215801D01*
X0013488Y0215827D01*
X0013572Y0215848D01*
X0013656Y0215866D01*
X0013742Y0215880D01*
X0013827Y0215890D01*
X0013914Y0215896D01*
X0014000Y0215898D01*
X0014086Y0215896D01*
X0014173Y0215890D01*
X0014258Y0215880D01*
X0014344Y0215866D01*
X0014428Y0215848D01*
X0014512Y0215827D01*
X0014594Y0215801D01*
X0014676Y0215772D01*
X0014755Y0215739D01*
X0014834Y0215702D01*
X0014910Y0215662D01*
X0014984Y0215618D01*
X0015057Y0215571D01*
X0015127Y0215520D01*
X0015195Y0215467D01*
X0015260Y0215410D01*
X0015322Y0215350D01*
X0015382Y0215288D01*
X0015439Y0215223D01*
X0015492Y0215155D01*
X0015543Y0215085D01*
X0015590Y0215012D01*
X0015634Y0214938D01*
X0015674Y0214862D01*
X0015711Y0214783D01*
X0015744Y0214704D01*
X0015773Y0214622D01*
X0015799Y0214540D01*
X0015820Y0214456D01*
X0015838Y0214372D01*
X0015852Y0214286D01*
X0015862Y0214201D01*
X0015868Y0214114D01*
X0015870Y0214028D01*
X0015868Y0213942D01*
X0015862Y0213855D01*
X0015852Y0213770D01*
X0015838Y0213684D01*
X0015820Y0213600D01*
X0015799Y0213516D01*
X0015773Y0213434D01*
X0015744Y0213352D01*
X0015711Y0213273D01*
X0015674Y0213194D01*
X0015634Y0213118D01*
X0015590Y0213044D01*
X0015543Y0212971D01*
X0015492Y0212901D01*
X0015439Y0212833D01*
X0015382Y0212768D01*
X0015322Y0212706D01*
X0015260Y0212646D01*
X0015195Y0212589D01*
X0015127Y0212536D01*
X0015057Y0212485D01*
X0014984Y0212438D01*
X0014910Y0212394D01*
X0014834Y0212354D01*
X0014755Y0212317D01*
X0014676Y0212284D01*
X0014594Y0212255D01*
X0014512Y0212229D01*
X0014428Y0212208D01*
X0014344Y0212190D01*
X0014258Y0212176D01*
X0014173Y0212166D01*
X0014086Y0212160D01*
X0014000Y0212158D01*
X0013914Y0212160D01*
X0013827Y0212166D01*
X0013742Y0212176D01*
X0013656Y0212190D01*
X0013572Y0212208D01*
X0013488Y0212229D01*
X0013406Y0212255D01*
X0013324Y0212284D01*
X0013245Y0212317D01*
X0013166Y0212354D01*
X0013090Y0212394D01*
X0013016Y0212438D01*
X0012943Y0212485D01*
X0012873Y0212536D01*
X0012805Y0212589D01*
X0012740Y0212646D01*
X0012678Y0212706D01*
X0012618Y0212768D01*
X0012561Y0212833D01*
X0012508Y0212901D01*
X0012457Y0212971D01*
X0012410Y0213044D01*
X0012366Y0213118D01*
X0012326Y0213194D01*
X0012289Y0213273D01*
X0012256Y0213352D01*
X0012227Y0213434D01*
X0012201Y0213516D01*
X0012180Y0213600D01*
X0012162Y0213684D01*
X0012148Y0213770D01*
X0012138Y0213855D01*
X0012132Y0213942D01*
X0012130Y0214028D01*
X0012130Y0204972D02*
X0012132Y0205058D01*
X0012138Y0205145D01*
X0012148Y0205230D01*
X0012162Y0205316D01*
X0012180Y0205400D01*
X0012201Y0205484D01*
X0012227Y0205566D01*
X0012256Y0205648D01*
X0012289Y0205727D01*
X0012326Y0205806D01*
X0012366Y0205882D01*
X0012410Y0205956D01*
X0012457Y0206029D01*
X0012508Y0206099D01*
X0012561Y0206167D01*
X0012618Y0206232D01*
X0012678Y0206294D01*
X0012740Y0206354D01*
X0012805Y0206411D01*
X0012873Y0206464D01*
X0012943Y0206515D01*
X0013016Y0206562D01*
X0013090Y0206606D01*
X0013166Y0206646D01*
X0013245Y0206683D01*
X0013324Y0206716D01*
X0013406Y0206745D01*
X0013488Y0206771D01*
X0013572Y0206792D01*
X0013656Y0206810D01*
X0013742Y0206824D01*
X0013827Y0206834D01*
X0013914Y0206840D01*
X0014000Y0206842D01*
X0014086Y0206840D01*
X0014173Y0206834D01*
X0014258Y0206824D01*
X0014344Y0206810D01*
X0014428Y0206792D01*
X0014512Y0206771D01*
X0014594Y0206745D01*
X0014676Y0206716D01*
X0014755Y0206683D01*
X0014834Y0206646D01*
X0014910Y0206606D01*
X0014984Y0206562D01*
X0015057Y0206515D01*
X0015127Y0206464D01*
X0015195Y0206411D01*
X0015260Y0206354D01*
X0015322Y0206294D01*
X0015382Y0206232D01*
X0015439Y0206167D01*
X0015492Y0206099D01*
X0015543Y0206029D01*
X0015590Y0205956D01*
X0015634Y0205882D01*
X0015674Y0205806D01*
X0015711Y0205727D01*
X0015744Y0205648D01*
X0015773Y0205566D01*
X0015799Y0205484D01*
X0015820Y0205400D01*
X0015838Y0205316D01*
X0015852Y0205230D01*
X0015862Y0205145D01*
X0015868Y0205058D01*
X0015870Y0204972D01*
X0015868Y0204886D01*
X0015862Y0204799D01*
X0015852Y0204714D01*
X0015838Y0204628D01*
X0015820Y0204544D01*
X0015799Y0204460D01*
X0015773Y0204378D01*
X0015744Y0204296D01*
X0015711Y0204217D01*
X0015674Y0204138D01*
X0015634Y0204062D01*
X0015590Y0203988D01*
X0015543Y0203915D01*
X0015492Y0203845D01*
X0015439Y0203777D01*
X0015382Y0203712D01*
X0015322Y0203650D01*
X0015260Y0203590D01*
X0015195Y0203533D01*
X0015127Y0203480D01*
X0015057Y0203429D01*
X0014984Y0203382D01*
X0014910Y0203338D01*
X0014834Y0203298D01*
X0014755Y0203261D01*
X0014676Y0203228D01*
X0014594Y0203199D01*
X0014512Y0203173D01*
X0014428Y0203152D01*
X0014344Y0203134D01*
X0014258Y0203120D01*
X0014173Y0203110D01*
X0014086Y0203104D01*
X0014000Y0203102D01*
X0013914Y0203104D01*
X0013827Y0203110D01*
X0013742Y0203120D01*
X0013656Y0203134D01*
X0013572Y0203152D01*
X0013488Y0203173D01*
X0013406Y0203199D01*
X0013324Y0203228D01*
X0013245Y0203261D01*
X0013166Y0203298D01*
X0013090Y0203338D01*
X0013016Y0203382D01*
X0012943Y0203429D01*
X0012873Y0203480D01*
X0012805Y0203533D01*
X0012740Y0203590D01*
X0012678Y0203650D01*
X0012618Y0203712D01*
X0012561Y0203777D01*
X0012508Y0203845D01*
X0012457Y0203915D01*
X0012410Y0203988D01*
X0012366Y0204062D01*
X0012326Y0204138D01*
X0012289Y0204217D01*
X0012256Y0204296D01*
X0012227Y0204378D01*
X0012201Y0204460D01*
X0012180Y0204544D01*
X0012162Y0204628D01*
X0012148Y0204714D01*
X0012138Y0204799D01*
X0012132Y0204886D01*
X0012130Y0204972D01*
X0008750Y0020000D02*
X0008752Y0020158D01*
X0008758Y0020315D01*
X0008768Y0020473D01*
X0008782Y0020630D01*
X0008800Y0020786D01*
X0008821Y0020943D01*
X0008847Y0021098D01*
X0008877Y0021253D01*
X0008910Y0021407D01*
X0008948Y0021560D01*
X0008989Y0021713D01*
X0009034Y0021864D01*
X0009083Y0022014D01*
X0009136Y0022162D01*
X0009192Y0022310D01*
X0009253Y0022455D01*
X0009316Y0022600D01*
X0009384Y0022742D01*
X0009455Y0022883D01*
X0009529Y0023022D01*
X0009607Y0023159D01*
X0009689Y0023294D01*
X0009773Y0023427D01*
X0009862Y0023558D01*
X0009953Y0023686D01*
X0010048Y0023813D01*
X0010145Y0023936D01*
X0010246Y0024058D01*
X0010350Y0024176D01*
X0010457Y0024292D01*
X0010567Y0024405D01*
X0010679Y0024516D01*
X0010795Y0024623D01*
X0010913Y0024728D01*
X0011033Y0024830D01*
X0011156Y0024928D01*
X0011282Y0025024D01*
X0011410Y0025116D01*
X0011540Y0025205D01*
X0011672Y0025291D01*
X0011807Y0025373D01*
X0011944Y0025452D01*
X0012082Y0025527D01*
X0012222Y0025599D01*
X0012365Y0025667D01*
X0012508Y0025732D01*
X0012654Y0025793D01*
X0012801Y0025850D01*
X0012949Y0025904D01*
X0013099Y0025954D01*
X0013249Y0026000D01*
X0013401Y0026042D01*
X0013554Y0026081D01*
X0013708Y0026115D01*
X0013863Y0026146D01*
X0014018Y0026172D01*
X0014174Y0026195D01*
X0014331Y0026214D01*
X0014488Y0026229D01*
X0014645Y0026240D01*
X0014803Y0026247D01*
X0014961Y0026250D01*
X0015118Y0026249D01*
X0015276Y0026244D01*
X0015433Y0026235D01*
X0015591Y0026222D01*
X0015747Y0026205D01*
X0015904Y0026184D01*
X0016059Y0026160D01*
X0016214Y0026131D01*
X0016369Y0026098D01*
X0016522Y0026062D01*
X0016675Y0026021D01*
X0016826Y0025977D01*
X0016976Y0025929D01*
X0017125Y0025878D01*
X0017273Y0025822D01*
X0017419Y0025763D01*
X0017564Y0025700D01*
X0017707Y0025633D01*
X0017848Y0025563D01*
X0017987Y0025490D01*
X0018125Y0025413D01*
X0018261Y0025332D01*
X0018394Y0025248D01*
X0018525Y0025161D01*
X0018654Y0025070D01*
X0018781Y0024976D01*
X0018906Y0024879D01*
X0019027Y0024779D01*
X0019147Y0024676D01*
X0019263Y0024570D01*
X0019377Y0024461D01*
X0019489Y0024349D01*
X0019597Y0024235D01*
X0019702Y0024117D01*
X0019805Y0023997D01*
X0019904Y0023875D01*
X0020000Y0023750D01*
X0020093Y0023622D01*
X0020183Y0023493D01*
X0020269Y0023361D01*
X0020353Y0023227D01*
X0020432Y0023091D01*
X0020509Y0022953D01*
X0020581Y0022813D01*
X0020650Y0022671D01*
X0020716Y0022528D01*
X0020778Y0022383D01*
X0020836Y0022236D01*
X0020891Y0022088D01*
X0020942Y0021939D01*
X0020989Y0021788D01*
X0021032Y0021637D01*
X0021071Y0021484D01*
X0021107Y0021330D01*
X0021138Y0021176D01*
X0021166Y0021021D01*
X0021190Y0020865D01*
X0021210Y0020708D01*
X0021226Y0020551D01*
X0021238Y0020394D01*
X0021246Y0020237D01*
X0021250Y0020079D01*
X0021250Y0019921D01*
X0021246Y0019763D01*
X0021238Y0019606D01*
X0021226Y0019449D01*
X0021210Y0019292D01*
X0021190Y0019135D01*
X0021166Y0018979D01*
X0021138Y0018824D01*
X0021107Y0018670D01*
X0021071Y0018516D01*
X0021032Y0018363D01*
X0020989Y0018212D01*
X0020942Y0018061D01*
X0020891Y0017912D01*
X0020836Y0017764D01*
X0020778Y0017617D01*
X0020716Y0017472D01*
X0020650Y0017329D01*
X0020581Y0017187D01*
X0020509Y0017047D01*
X0020432Y0016909D01*
X0020353Y0016773D01*
X0020269Y0016639D01*
X0020183Y0016507D01*
X0020093Y0016378D01*
X0020000Y0016250D01*
X0019904Y0016125D01*
X0019805Y0016003D01*
X0019702Y0015883D01*
X0019597Y0015765D01*
X0019489Y0015651D01*
X0019377Y0015539D01*
X0019263Y0015430D01*
X0019147Y0015324D01*
X0019027Y0015221D01*
X0018906Y0015121D01*
X0018781Y0015024D01*
X0018654Y0014930D01*
X0018525Y0014839D01*
X0018394Y0014752D01*
X0018261Y0014668D01*
X0018125Y0014587D01*
X0017987Y0014510D01*
X0017848Y0014437D01*
X0017707Y0014367D01*
X0017564Y0014300D01*
X0017419Y0014237D01*
X0017273Y0014178D01*
X0017125Y0014122D01*
X0016976Y0014071D01*
X0016826Y0014023D01*
X0016675Y0013979D01*
X0016522Y0013938D01*
X0016369Y0013902D01*
X0016214Y0013869D01*
X0016059Y0013840D01*
X0015904Y0013816D01*
X0015747Y0013795D01*
X0015591Y0013778D01*
X0015433Y0013765D01*
X0015276Y0013756D01*
X0015118Y0013751D01*
X0014961Y0013750D01*
X0014803Y0013753D01*
X0014645Y0013760D01*
X0014488Y0013771D01*
X0014331Y0013786D01*
X0014174Y0013805D01*
X0014018Y0013828D01*
X0013863Y0013854D01*
X0013708Y0013885D01*
X0013554Y0013919D01*
X0013401Y0013958D01*
X0013249Y0014000D01*
X0013099Y0014046D01*
X0012949Y0014096D01*
X0012801Y0014150D01*
X0012654Y0014207D01*
X0012508Y0014268D01*
X0012365Y0014333D01*
X0012222Y0014401D01*
X0012082Y0014473D01*
X0011944Y0014548D01*
X0011807Y0014627D01*
X0011672Y0014709D01*
X0011540Y0014795D01*
X0011410Y0014884D01*
X0011282Y0014976D01*
X0011156Y0015072D01*
X0011033Y0015170D01*
X0010913Y0015272D01*
X0010795Y0015377D01*
X0010679Y0015484D01*
X0010567Y0015595D01*
X0010457Y0015708D01*
X0010350Y0015824D01*
X0010246Y0015942D01*
X0010145Y0016064D01*
X0010048Y0016187D01*
X0009953Y0016314D01*
X0009862Y0016442D01*
X0009773Y0016573D01*
X0009689Y0016706D01*
X0009607Y0016841D01*
X0009529Y0016978D01*
X0009455Y0017117D01*
X0009384Y0017258D01*
X0009316Y0017400D01*
X0009253Y0017545D01*
X0009192Y0017690D01*
X0009136Y0017838D01*
X0009083Y0017986D01*
X0009034Y0018136D01*
X0008989Y0018287D01*
X0008948Y0018440D01*
X0008910Y0018593D01*
X0008877Y0018747D01*
X0008847Y0018902D01*
X0008821Y0019057D01*
X0008800Y0019214D01*
X0008782Y0019370D01*
X0008768Y0019527D01*
X0008758Y0019685D01*
X0008752Y0019842D01*
X0008750Y0020000D01*
M02*
